<svg width="92" height="117" viewBox="0 0 92 117" fill="none" xmlns="http://www.w3.org/2000/svg">
<path d="M31.9099 88.6823C31.9099 85.4054 60.0877 85.4054 60.0877 88.6823C60.0877 100.062 50.9619 105.12 45.9988 105.12C41.0357 105.12 31.9098 100.379 31.9099 88.6823Z" fill="#BAD3CA"/>
<path d="M31.5784 82.2468H60.4192L59.3107 87.8028C59.3107 87.8028 55.1151 95.1754 45.9988 95.1754C36.8824 95.1754 32.6868 87.8028 32.6868 87.8028L31.5784 82.2468Z" fill="#152828"/>
<path d="M32.0757 84.7335C36.0877 91.4299 55.0392 92.2255 59.922 84.7335L59.1927 88.38C59.1927 88.38 55.2183 95.6908 46.1019 95.6908C36.9856 95.6908 32.79 88.3181 32.79 88.3181L32.0757 84.7335Z" fill="#2A5050"/>
<path d="M32.6394 87.5519C40.4297 96.3367 51.4688 96.834 59.3619 87.5519L59.1929 88.3806C59.1929 88.3806 55.1557 95.906 45.9363 95.707C36.7169 95.508 32.7886 88.3143 32.7886 88.3143L32.6394 87.5519Z" fill="#468586"/>
<path d="M26.4401 49.6603L33.4407 47.3974C34.2309 47.142 34.9445 46.6928 35.5164 46.0908L36.2195 45.3507H45.9989H55.6256L56.5276 46.2163C57.0707 46.7374 57.725 47.1285 58.4412 47.36L65.5576 49.6603C65.5576 49.6603 76 88.4462 45.9989 88.4462C15.9978 88.4462 26.4401 49.6603 26.4401 49.6603Z" fill="#D2E3DD"/>
<path d="M37.2776 42.0354H54.5158L56.1734 47.008C56.1734 47.008 56.1734 51.9805 45.8967 51.9805C35.6201 51.9805 35.6201 47.008 35.6201 47.008L37.2776 42.0354Z" fill="#2A5050"/>
<path d="M35.7857 46.5111C35.7857 46.5111 37.2775 50.8207 45.8966 50.8207C54.6815 50.6549 56.0075 46.5111 56.0075 46.5111L56.1732 47.0084C56.1732 47.0084 56.1732 51.9809 45.8966 51.9809C35.62 51.9809 35.62 47.0084 35.62 47.0084L35.7857 46.5111Z" fill="#468586"/>
<path d="M37.2776 42.0354H54.5158L55.6197 45.3504C51.3665 47.008 40.9241 46.8422 36.1737 45.3504L37.2776 42.0354Z" fill="#152828"/>
<path d="M25.6362 53.5614L31.6541 56.4663L25.7282 68.7422L19.7104 65.8373L25.6362 53.5614Z" fill="#2A5050"/>
<path d="M25.6362 53.5614L31.6541 56.4663L30.007 59.8866C27.6007 61.4507 23.4031 62.2414 21.9349 61.2289L25.6362 53.5614Z" fill="#152828"/>
<path d="M19.5025 66.0916L20.5298 64.1385C22.2228 64.6551 24.1873 66.5354 26.5569 65.4728C26.845 65.3436 27.085 65.3716 27.2783 65.5288L26.2401 67.6557L19.5025 66.0916Z" fill="#468586"/>
<path d="M18.8406 65.007C20.8928 63.693 23.355 67.6302 26.5567 66.1944C29.7585 64.7585 27.021 82.7402 20.2222 81.694C13.4235 80.6477 16.7884 66.321 18.8406 65.007Z" fill="#BAD3CA"/>
<path d="M18.2856 86.8914C18.652 84.7645 18.9491 83.0404 17.2003 82.7994C15.4515 82.5584 15.1545 84.2825 14.788 86.4094C14.4216 88.5362 14.9075 90.3683 15.8733 90.5014C16.8391 90.6345 17.9191 89.0182 18.2856 86.8914Z" fill="#D2E3DD"/>
<path d="M17.6616 89.1664L18.8492 83.394C18.8451 83.213 18.6486 83.0809 18.6486 83.0809C17.0257 85.5723 16.9068 87.9054 17.6616 89.1664Z" fill="#AECAC0"/>
<path d="M20.9057 88.1052C21.2722 85.9783 21.5692 84.2541 19.9091 84.0254C18.2489 83.7966 17.9518 85.5207 17.5854 87.6476C17.2189 89.7745 17.6652 91.601 18.582 91.7274C19.4989 91.8537 20.5393 90.232 20.9057 88.1052Z" fill="#D2E3DD"/>
<path d="M20.3929 89.5247L21.5806 83.7522C21.5764 83.5713 21.3799 83.4391 21.3799 83.4391C19.757 85.9306 19.6381 88.2637 20.3929 89.5247Z" fill="#AECAC0"/>
<path d="M23.707 87.6486C24.1919 85.5418 24.5849 83.834 22.9972 83.5128C21.4095 83.1916 21.0165 84.8994 20.5317 87.0062C20.0468 89.1129 20.3646 90.9646 21.2415 91.142C22.1183 91.3194 23.2222 89.7553 23.707 87.6486Z" fill="#D2E3DD"/>
<path d="M15.6569 82.3941L12.9048 79.9898C15.2159 75.3548 21.3455 73.9857 24.0387 77.4163C25.7936 80.2919 24.9413 81.6252 24.1299 84.9498C21.2609 85.7867 18.595 85.2708 15.4036 83.8606L15.6569 82.3941Z" fill="#2A5050"/>
<path d="M24.9612 79.5884C22.2361 75.7535 18.6332 76.1249 14.9027 77.423C17.5071 75.1012 21.9804 74.6469 24.0948 77.4228C24.6204 78.307 24.858 78.8934 24.9612 79.5884Z" fill="#152828"/>
<path d="M15.4996 82.4518C18.0026 81.8478 19.011 79.268 17.4447 78.0497C14.5309 75.7834 12.1766 80.7203 11.4917 81.9962C10.8069 83.272 10.7799 84.5304 11.5838 85.0622C12.3878 85.594 14.051 84.837 15.4996 82.4518Z" fill="#D2E3DD"/>
<path d="M34.3959 48.1375C40.4456 54.1872 25.0644 63.0869 22.2554 60.2779C19.4464 57.4689 28.3462 42.0878 34.3959 48.1375Z" fill="#BAD3CA"/>
<path d="M66.3638 53.5614L60.3459 56.4663L66.2718 68.7422L72.2896 65.8373L66.3638 53.5614Z" fill="#2A5050"/>
<path d="M66.3638 53.5614L60.3459 56.4663L61.993 59.8866C64.3993 61.4507 68.5969 62.2414 70.0651 61.2289L66.3638 53.5614Z" fill="#152828"/>
<path d="M72.4975 66.0916L71.4702 64.1385C69.7772 64.6551 67.8127 66.5354 65.4431 65.4728C65.155 65.3436 64.915 65.3716 64.7217 65.5288L65.7599 67.6557L72.4975 66.0916Z" fill="#468586"/>
<path d="M73.1594 65.007C71.1072 63.693 68.645 67.6302 65.4433 66.1944C62.2415 64.7585 64.979 82.7402 71.7778 81.694C78.5765 80.6477 75.2116 66.321 73.1594 65.007Z" fill="#BAD3CA"/>
<path d="M73.7144 86.8914C73.348 84.7645 73.0509 83.0404 74.7997 82.7994C76.5485 82.5584 76.8455 84.2825 77.212 86.4094C77.5784 88.5362 77.0925 90.3683 76.1267 90.5014C75.1609 90.6345 74.0809 89.0182 73.7144 86.8914Z" fill="#D2E3DD"/>
<path d="M74.3384 89.1664L73.1508 83.394C73.1549 83.213 73.3514 83.0809 73.3514 83.0809C74.9743 85.5723 75.0932 87.9054 74.3384 89.1664Z" fill="#AECAC0"/>
<path d="M71.0943 88.1052C70.7278 85.9783 70.4308 84.2541 72.0909 84.0254C73.7511 83.7966 74.0482 85.5207 74.4146 87.6476C74.7811 89.7745 74.3348 91.601 73.418 91.7274C72.5011 91.8537 71.4607 90.232 71.0943 88.1052Z" fill="#D2E3DD"/>
<path d="M71.6071 89.5247L70.4194 83.7522C70.4236 83.5713 70.6201 83.4391 70.6201 83.4391C72.243 85.9306 72.3619 88.2637 71.6071 89.5247Z" fill="#AECAC0"/>
<path d="M68.293 87.6486C67.8081 85.5418 67.4151 83.834 69.0028 83.5128C70.5905 83.1916 70.9835 84.8994 71.4683 87.0062C71.9532 89.1129 71.6354 90.9646 70.7585 91.142C69.8817 91.3194 68.7778 89.7553 68.293 87.6486Z" fill="#D2E3DD"/>
<path d="M76.3431 82.3941L79.0952 79.9898C76.7841 75.3548 70.6545 73.9857 67.9613 77.4163C66.2064 80.2919 67.0587 81.6252 67.8701 84.9498C70.7391 85.7867 73.405 85.2708 76.5964 83.8606L76.3431 82.3941Z" fill="#2A5050"/>
<path d="M67.0388 79.5884C69.7639 75.7535 73.3668 76.1249 77.0973 77.423C74.4929 75.1012 70.0196 74.6469 67.9051 77.4227C67.3796 78.3069 67.142 78.8934 67.0388 79.5884Z" fill="#152828"/>
<path d="M76.5004 82.4518C73.9974 81.8478 72.989 79.268 74.5553 78.0497C77.4691 75.7834 79.8234 80.7203 80.5083 81.9962C81.1931 83.272 81.2201 84.5304 80.4162 85.0622C79.6122 85.594 77.949 84.837 76.5004 82.4518Z" fill="#D2E3DD"/>
<path d="M57.4488 47.9504C51.3991 54.0001 66.7803 62.8999 69.5893 60.0909C72.3983 57.2818 63.4985 41.9007 57.4488 47.9504Z" fill="#BAD3CA"/>
<path d="M75.9569 23.8224C75.9569 19.8355 72.7249 16.6035 68.738 16.6035V33.207C72.7249 33.207 75.9569 29.975 75.9569 25.9881V23.8224Z" fill="#2A5050"/>
<path d="M16.0398 23.8224C16.0398 19.8355 19.2718 16.6035 23.2587 16.6035V33.207C19.2718 33.207 16.0398 29.975 16.0398 25.9881V23.8224Z" fill="#2A5050"/>
<path d="M71.144 22.0179C71.144 39.7512 59.8859 44.0356 45.9982 44.0356C32.1105 44.0356 20.8523 39.7512 20.8523 22.0179C20.8523 9.04508 29.7042 0.000190735 45.9982 0.000190735C59.8859 0.000190735 71.144 6.66479 71.144 22.0179Z" fill="#BAD3CA"/>
<path d="M46.1533 11.003C63.8497 11.003 66.4687 15.317 66.4688 25.2549C66.4688 25.3743 66.4656 25.4929 66.4639 25.6104C66.3809 16.5301 63.5752 12.5801 46.1533 12.5801C28.5447 12.5801 25.9178 17.9416 25.8408 25.6778C25.8387 25.5382 25.8379 25.3972 25.8379 25.2549C25.8379 16.8577 28.2687 11.003 46.1533 11.003Z" fill="#CEE6DD"/>
<path d="M46.1533 39.4297C28.4569 39.4297 25.8379 35.1157 25.8379 25.1777C25.8379 25.0584 25.8411 24.9398 25.8428 24.8223C25.9258 33.9025 28.7315 37.8525 46.1533 37.8525C63.7619 37.8525 66.3888 32.4911 66.4658 24.7549C66.468 24.8945 66.4688 25.0355 66.4688 25.1777C66.4687 33.575 64.038 39.4297 46.1533 39.4297Z" fill="#92B8AA"/>
<path d="M66.4686 25.2354C66.4686 36.079 58.5982 38.6988 46.1532 38.6988C32.8095 38.6988 25.8379 36.079 25.8379 25.2354C25.8379 17.3028 28.2683 11.772 46.1532 11.772C63.8499 11.772 66.4686 15.8472 66.4686 25.2354Z" fill="#EFFBF7"/>
<path d="M65.2664 25.2355C65.2664 34.9173 57.8617 37.2564 46.1532 37.2564C33.599 37.2564 27.0399 34.9173 27.0399 25.2355C27.0399 18.1528 29.3265 13.2146 46.1532 13.2146C62.8027 13.2146 65.2664 16.8533 65.2664 25.2355Z" fill="#2A5050"/>
<path d="M46.1531 13.2146C62.8022 13.2146 65.2663 16.8573 65.2664 25.2488C65.2664 25.3494 65.2631 25.4495 65.2615 25.5486C65.1833 17.8816 62.5436 14.5466 46.1531 14.5466C29.6061 14.5466 27.1208 19.0628 27.0427 25.5828C27.041 25.4725 27.0398 25.361 27.0398 25.2488C27.0398 18.1582 29.3268 13.2146 46.1531 13.2146Z" fill="#152828"/>
<path d="M46.1531 37.218C29.504 37.218 27.0398 33.5753 27.0398 25.1838C27.0398 25.0832 27.0431 24.9831 27.0447 24.884C27.1229 32.551 29.7625 35.886 46.1531 35.886C62.7001 35.886 65.1854 31.3698 65.2634 24.8499C65.2652 24.9601 65.2664 25.0716 65.2664 25.1838C65.2663 32.2744 62.9793 37.218 46.1531 37.218Z" fill="#468586"/>
<g filter="url(#filter0_f_255_10092)">
<ellipse cx="37.146" cy="24.8331" rx="3.125" ry="4.92788" fill="#F1F8F4"/>
<ellipse cx="54.9341" cy="24.8331" rx="3.125" ry="4.92788" fill="#F1F8F4"/>
</g>
<ellipse cx="37.146" cy="24.8331" rx="3.125" ry="4.92788" fill="#F1F8F4"/>
<ellipse cx="54.9341" cy="24.8331" rx="3.125" ry="4.92788" fill="#F1F8F4"/>
<ellipse cx="44" cy="113.121" rx="13.803" ry="3.00065" fill="#607C7F" fill-opacity="0.2"/>
<defs>
<filter id="filter0_f_255_10092" x="30.6556" y="16.5398" width="30.7689" height="16.5865" filterUnits="userSpaceOnUse" color-interpolation-filters="sRGB">
<feFlood flood-opacity="0" result="BackgroundImageFix"/>
<feBlend mode="normal" in="SourceGraphic" in2="BackgroundImageFix" result="shape"/>
<feGaussianBlur stdDeviation="1.68269" result="effect1_foregroundBlur_255_10092"/>
</filter>
</defs>
</svg>
