<svg width="88" height="101" viewBox="0 0 88 101" fill="none" xmlns="http://www.w3.org/2000/svg">
<path d="M33.772 75.8952C33.772 73.5166 54.2256 73.5166 54.2256 75.8952C54.2256 84.1558 47.6014 87.8272 43.9988 87.8272C40.3962 87.8272 33.7719 84.3852 33.772 75.8952Z" fill="#F1E0E4"/>
<path d="M33.5312 71.2238H54.4661L53.6615 75.2568C53.6615 75.2568 50.616 80.6084 43.9987 80.6084C37.3813 80.6084 34.3359 75.2568 34.3359 75.2568L33.5312 71.2238Z" fill="#251418"/>
<path d="M33.8923 73.0289C36.8045 77.8896 50.561 78.4671 54.1053 73.0289L53.5759 75.6758C53.5759 75.6758 50.691 80.9825 44.0736 80.9825C37.4563 80.9825 34.4108 75.6309 34.4108 75.6309L33.8923 73.0289Z" fill="#6E3D47"/>
<path d="M34.3015 75.0747C39.9563 81.4514 47.9693 81.8123 53.6987 75.0747L53.576 75.6763C53.576 75.6763 50.6455 81.1387 43.9534 80.9943C37.2613 80.8498 34.4098 75.6281 34.4098 75.6281L34.3015 75.0747Z" fill="#49282F"/>
<path d="M29.8015 47.5701L34.883 45.9276C35.4566 45.7422 35.9746 45.4161 36.3897 44.9791L36.9001 44.4419H43.9986H50.9865L51.6412 45.0702C52.0354 45.4485 52.5104 45.7324 53.0302 45.9004L58.1958 47.5701C58.1958 47.5701 65.7757 75.7238 43.9987 75.7238C22.2216 75.7238 29.8015 47.5701 29.8015 47.5701Z" fill="#F1E0E4"/>
<path d="M37.6682 42.0354H50.181L51.3842 45.6449C51.3842 45.6449 51.3842 49.2543 43.9246 49.2543C36.4651 49.2543 36.4651 45.6449 36.4651 45.6449L37.6682 42.0354Z" fill="#6E3D47"/>
<path d="M36.5854 45.2842C36.5854 45.2842 37.6682 48.4124 43.9246 48.4124C50.3013 48.2921 51.2639 45.2842 51.2639 45.2842L51.3842 45.6452C51.3842 45.6452 51.3842 49.2546 43.9246 49.2546C36.4651 49.2546 36.4651 45.6452 36.4651 45.6452L36.5854 45.2842Z" fill="#49282F"/>
<path d="M37.6682 42.0354H50.181L50.9823 44.4417C47.895 45.6449 40.3152 45.5245 36.8669 44.4417L37.6682 42.0354Z" fill="#251418"/>
<path d="M25.6362 53.5614L31.6541 56.4663L25.7282 68.7422L19.7104 65.8373L25.6362 53.5614Z" fill="#6E3D47"/>
<path d="M25.6362 53.5614L31.6541 56.4663L30.007 59.8866C27.6007 61.4507 23.4031 62.2414 21.9349 61.2289L25.6362 53.5614Z" fill="#251418"/>
<path d="M19.5027 66.0916L20.5301 64.1385C22.2231 64.6551 24.1876 66.5354 26.5572 65.4728C26.8453 65.3436 27.0853 65.3716 27.2786 65.5288L26.2403 67.6557L19.5027 66.0916Z" fill="#49282F"/>
<path d="M18.8405 65.007C20.8927 63.693 23.3548 67.6302 26.5566 66.1944C29.7584 64.7585 27.0208 82.7402 20.2221 81.694C13.4234 80.6477 16.7883 66.321 18.8405 65.007Z" fill="#E2C1C8"/>
<path d="M18.2856 86.8914C18.652 84.7645 18.9491 83.0404 17.2003 82.7994C15.4515 82.5584 15.1545 84.2825 14.788 86.4094C14.4216 88.5362 14.9075 90.3683 15.8733 90.5014C16.8391 90.6345 17.9191 89.0182 18.2856 86.8914Z" fill="#F1E0E4"/>
<path d="M17.6616 89.1664L18.8492 83.394C18.8451 83.213 18.6486 83.0809 18.6486 83.0809C17.0257 85.5723 16.9068 87.9054 17.6616 89.1664Z" fill="#D4A3AD"/>
<path d="M20.9057 88.1052C21.2722 85.9783 21.5692 84.2541 19.9091 84.0254C18.2489 83.7966 17.9518 85.5207 17.5854 87.6476C17.2189 89.7745 17.6652 91.601 18.582 91.7274C19.4989 91.8537 20.5393 90.232 20.9057 88.1052Z" fill="#F1E0E4"/>
<path d="M20.3928 89.5247L21.5804 83.7522C21.5763 83.5713 21.3798 83.4391 21.3798 83.4391C19.7569 85.9306 19.638 88.2637 20.3928 89.5247Z" fill="#D4A3AD"/>
<path d="M23.707 87.6486C24.1919 85.5418 24.5849 83.834 22.9972 83.5128C21.4095 83.1916 21.0165 84.8994 20.5317 87.0062C20.0468 89.1129 20.3646 90.9646 21.2415 91.142C22.1183 91.3194 23.2222 89.7553 23.707 87.6486Z" fill="#F1E0E4"/>
<path d="M15.6571 82.3941L12.9049 79.9898C15.216 75.3548 21.3456 73.9857 24.0389 77.4163C25.7937 80.2919 24.9414 81.6252 24.13 84.9498C21.261 85.7867 18.5952 85.2708 15.4037 83.8606L15.6571 82.3941Z" fill="#6E3D47"/>
<path d="M24.9613 79.5884C22.2362 75.7535 18.6333 76.1249 14.9028 77.423C17.5072 75.1012 21.9805 74.6469 24.095 77.4228C24.6205 78.307 24.8581 78.8934 24.9613 79.5884Z" fill="#251418"/>
<path d="M15.4997 82.4518C18.0028 81.8478 19.0112 79.268 17.4449 78.0497C14.5311 75.7834 12.1767 80.7203 11.4918 81.9962C10.807 83.272 10.78 84.5304 11.584 85.0622C12.3879 85.594 14.0512 84.837 15.4997 82.4518Z" fill="#F1E0E4"/>
<path d="M34.3959 48.1375C40.4456 54.1872 25.0644 63.0869 22.2554 60.2779C19.4464 57.4689 28.3462 42.0878 34.3959 48.1375Z" fill="#E2C1C8"/>
<path d="M62.3638 53.5614L56.3459 56.4663L62.2718 68.7422L68.2896 65.8373L62.3638 53.5614Z" fill="#6E3D47"/>
<path d="M62.3638 53.5614L56.3459 56.4663L57.993 59.8866C60.3993 61.4507 64.5969 62.2414 66.0651 61.2289L62.3638 53.5614Z" fill="#251418"/>
<path d="M68.4973 66.0916L67.4699 64.1385C65.7769 64.6551 63.8124 66.5354 61.4428 65.4728C61.1547 65.3436 60.9147 65.3716 60.7214 65.5288L61.7597 67.6557L68.4973 66.0916Z" fill="#49282F"/>
<path d="M69.1595 65.007C67.1073 63.693 64.6452 67.6302 61.4434 66.1944C58.2416 64.7585 60.9792 82.7402 67.7779 81.694C74.5766 80.6477 71.2117 66.321 69.1595 65.007Z" fill="#E2C1C8"/>
<path d="M69.7144 86.8914C69.348 84.7645 69.0509 83.0404 70.7997 82.7994C72.5485 82.5584 72.8455 84.2825 73.212 86.4094C73.5784 88.5362 73.0925 90.3683 72.1267 90.5014C71.1609 90.6345 70.0809 89.0182 69.7144 86.8914Z" fill="#F1E0E4"/>
<path d="M70.3384 89.1664L69.1508 83.394C69.1549 83.213 69.3514 83.0809 69.3514 83.0809C70.9743 85.5723 71.0932 87.9054 70.3384 89.1664Z" fill="#D4A3AD"/>
<path d="M67.0943 88.1052C66.7278 85.9783 66.4308 84.2541 68.0909 84.0254C69.7511 83.7966 70.0482 85.5207 70.4146 87.6476C70.7811 89.7745 70.3348 91.601 69.418 91.7274C68.5011 91.8537 67.4607 90.232 67.0943 88.1052Z" fill="#F1E0E4"/>
<path d="M67.6072 89.5247L66.4196 83.7522C66.4237 83.5713 66.6202 83.4391 66.6202 83.4391C68.2431 85.9306 68.362 88.2637 67.6072 89.5247Z" fill="#D4A3AD"/>
<path d="M64.293 87.6486C63.8081 85.5418 63.4151 83.834 65.0028 83.5128C66.5905 83.1916 66.9835 84.8994 67.4683 87.0062C67.9532 89.1129 67.6354 90.9646 66.7585 91.142C65.8817 91.3194 64.7778 89.7553 64.293 87.6486Z" fill="#F1E0E4"/>
<path d="M72.3429 82.3941L75.0951 79.9898C72.784 75.3548 66.6544 73.9857 63.9611 77.4163C62.2063 80.2919 63.0586 81.6252 63.87 84.9498C66.739 85.7867 69.4048 85.2708 72.5963 83.8606L72.3429 82.3941Z" fill="#6E3D47"/>
<path d="M63.0386 79.5884C65.7638 75.7535 69.3667 76.1249 73.0972 77.423C70.4928 75.1012 66.0195 74.6469 63.905 77.4227C63.3795 78.3069 63.1419 78.8934 63.0386 79.5884Z" fill="#251418"/>
<path d="M72.5003 82.4518C69.9972 81.8478 68.9888 79.268 70.5551 78.0497C73.4689 75.7834 75.8233 80.7203 76.5082 81.9962C77.193 83.272 77.22 84.5304 76.416 85.0622C75.6121 85.594 73.9488 84.837 72.5003 82.4518Z" fill="#F1E0E4"/>
<path d="M53.4488 47.9504C47.3991 54.0001 62.7803 62.8999 65.5893 60.0909C68.3983 57.2818 59.4985 41.9007 53.4488 47.9504Z" fill="#E2C1C8"/>
<path d="M73.9568 23.8224C73.9568 19.8355 70.7248 16.6035 66.7379 16.6035V33.207C70.7248 33.207 73.9568 29.975 73.9568 25.9881V23.8224Z" fill="#6E3D47"/>
<path d="M14.0398 23.8224C14.0398 19.8355 17.2718 16.6035 21.2587 16.6035V33.207C17.2718 33.207 14.0398 29.975 14.0398 25.9881V23.8224Z" fill="#6E3D47"/>
<path d="M69.144 22.0179C69.144 39.7512 57.8859 44.0356 43.9982 44.0356C30.1105 44.0356 18.8523 39.7512 18.8523 22.0179C18.8523 9.04508 27.7042 0.000190735 43.9982 0.000190735C57.8859 0.000190735 69.144 6.66479 69.144 22.0179Z" fill="#E2C1C8"/>
<path d="M44.1533 11.003C61.8497 11.003 64.4687 15.317 64.4688 25.2549C64.4688 25.3743 64.4656 25.4929 64.4639 25.6104C64.3809 16.5301 61.5752 12.5801 44.1533 12.5801C26.5447 12.5801 23.9178 17.9416 23.8408 25.6778C23.8387 25.5382 23.8379 25.3972 23.8379 25.2549C23.8379 16.8577 26.2687 11.003 44.1533 11.003Z" fill="#D4A3AD"/>
<path d="M44.1533 39.4297C26.4569 39.4297 23.8379 35.1157 23.8379 25.1777C23.8379 25.0584 23.8411 24.9398 23.8428 24.8223C23.9258 33.9025 26.7315 37.8525 44.1533 37.8525C61.7619 37.8525 64.3888 32.4911 64.4658 24.7549C64.468 24.8945 64.4688 25.0355 64.4688 25.1777C64.4687 33.575 62.038 39.4297 44.1533 39.4297Z" fill="#C58491"/>
<path d="M64.4686 25.2354C64.4686 36.079 56.5982 38.6988 44.1532 38.6988C30.8095 38.6988 23.8379 36.079 23.8379 25.2354C23.8379 17.3028 26.2683 11.772 44.1532 11.772C61.8499 11.772 64.4686 15.8472 64.4686 25.2354Z" fill="#EFFBF7"/>
<path d="M63.2663 25.2355C63.2663 34.9173 55.8616 37.2564 44.153 37.2564C31.5989 37.2564 25.0398 34.9173 25.0398 25.2355C25.0398 18.1528 27.3264 13.2146 44.153 13.2146C60.8026 13.2146 63.2663 16.8533 63.2663 25.2355Z" fill="#6E3D47"/>
<path d="M44.1531 13.2146C60.8022 13.2146 63.2663 16.8573 63.2664 25.2488C63.2664 25.3494 63.2631 25.4495 63.2615 25.5486C63.1833 17.8816 60.5436 14.5466 44.1531 14.5466C27.6061 14.5466 25.1208 19.0628 25.0427 25.5828C25.041 25.4725 25.0398 25.361 25.0398 25.2488C25.0398 18.1582 27.3268 13.2146 44.1531 13.2146Z" fill="#251418"/>
<path d="M44.1531 37.218C27.504 37.218 25.0398 33.5753 25.0398 25.1838C25.0398 25.0832 25.0431 24.9831 25.0447 24.884C25.1229 32.551 27.7625 35.886 44.1531 35.886C60.7001 35.886 63.1854 31.3698 63.2634 24.8499C63.2652 24.9601 63.2664 25.0716 63.2664 25.1838C63.2663 32.2744 60.9793 37.218 44.1531 37.218Z" fill="#49282F"/>
<g filter="url(#filter0_f_255_10223)">
<ellipse cx="35.146" cy="24.8331" rx="3.125" ry="4.92788" fill="#F1F8F4"/>
<ellipse cx="52.9341" cy="24.8331" rx="3.125" ry="4.92788" fill="#F1F8F4"/>
</g>
<ellipse cx="35.146" cy="24.8331" rx="3.125" ry="4.92788" fill="#F1F8F4"/>
<ellipse cx="52.9341" cy="24.8331" rx="3.125" ry="4.92788" fill="#F1F8F4"/>
<ellipse cx="44" cy="97.1197" rx="13.803" ry="3.00065" fill="#607C7F" fill-opacity="0.2"/>
<defs>
<filter id="filter0_f_255_10223" x="28.6556" y="16.5398" width="30.7689" height="16.5865" filterUnits="userSpaceOnUse" color-interpolation-filters="sRGB">
<feFlood flood-opacity="0" result="BackgroundImageFix"/>
<feBlend mode="normal" in="SourceGraphic" in2="BackgroundImageFix" result="shape"/>
<feGaussianBlur stdDeviation="1.68269" result="effect1_foregroundBlur_255_10223"/>
</filter>
</defs>
</svg>
