<svg width="66" height="48" viewBox="0 0 66 48" fill="none" xmlns="http://www.w3.org/2000/svg">
<rect width="6.68301" height="13.6328" transform="matrix(-0.655982 -0.754777 -0.754777 0.655982 35.9675 11.0417)" fill="#152828"/>
<path d="M31.5837 5.99706L21.2872 14.9231L24.7984 18.972L25.4872 20.2518L27.1023 18.7473L27.1018 18.7467L35.9677 11.0413L31.5837 5.99706Z" fill="#152828"/>
<path d="M29.3471 16.7957C28.5215 14.0979 24.3676 15.1374 23.1698 13.3067L22.5567 13.8069L22.315 17.235L28.8573 17.235L29.3471 16.7957Z" fill="#2A5050"/>
<path d="M6.63745 15.6272L8.99938 13.3073C13.5874 15.7112 14.7838 19.8059 11.2993 22.43C8.3888 24.1269 6.23552 23.4503 3.76472 22.3699C2.98555 19.4844 3.63349 18.9241 5.10767 15.7613L6.63745 15.6272Z" fill="#152828"/>
<path d="M11.4048 22.5716L12.4885 16.3143C12.2478 15.833 12.026 15.6489 11.6455 15.2315C11.8508 17.5733 9.00649 21.0138 9.96088 23.0529L11.4048 22.5716Z" fill="#2A5050"/>
<path d="M3.24715 19.7892C1.62868 18.5583 0.335635 18.5737 0.0420925 19.3743C-0.25145 20.1749 1.03149 21.7035 2.59971 22.2785C4.16793 22.8535 5.74794 22.5278 6.04148 21.7272C6.33502 20.9266 5.55407 19.3881 3.24715 19.7892Z" fill="#A9C1B8"/>
<path d="M5.65596 20.3859L0.816465 18.841C0.575808 18.8072 0.354825 18.9757 0.354825 18.9757C2.20435 21.3094 4.22363 21.4658 5.65596 20.3859Z" fill="#8EADA1"/>
<path d="M3.41865 17.8716C1.80019 16.6407 0.507144 16.6561 0.213602 17.4567C-0.07994 18.2573 1.203 19.7859 2.77122 20.3609C4.33944 20.9359 5.91945 20.6102 6.21299 19.8096C6.50653 19.009 5.72557 17.4705 3.41865 17.8716Z" fill="#A9C1B8"/>
<path d="M6.08735 18.7354L0.935885 16.9161C0.5749 16.9161 0.373973 17.1884 0.373973 17.1884C2.41535 19.5926 4.58151 19.7883 6.08735 18.7354Z" fill="#8EADA1"/>
<path d="M3.79101 15.7468C1.96126 14.3551 0.499411 14.3725 0.167547 15.2777C-0.164316 16.1828 1.2861 17.911 3.05905 18.561C4.832 19.2111 6.61827 18.8429 6.95014 17.9377C7.282 17.0326 6.39909 15.2932 3.79101 15.7468Z" fill="#A9C1B8"/>
<ellipse cx="7.53769" cy="14.4401" rx="1.74558" ry="3.41918" transform="rotate(-65.0101 7.53769 14.4401)" fill="#A9C1B8"/>
<path d="M28.9346 17.1893C28.1609 14.2374 23.8025 15.8816 22.8732 13.5473C17.2541 12.832 12.2722 15.9539 12.2722 15.9539C12.5279 18.8696 7.91321 22.6559 11.951 24.6242C18.0572 27.1116 30.0675 21.512 28.9346 17.1893Z" fill="#819D92"/>
<path d="M35.968 11.0414L32.5696 13.9945C30.3032 15.0511 28.2088 15.3847 27.1839 14.5287C26.3472 13.8299 26.1627 12.2883 26.469 10.4301L31.5843 5.99744L35.968 11.0414Z" fill="#070D0D"/>
<path d="M39.3539 1.32843C33.1698 -4.58385 24.6179 10.9934 27.4893 13.7386C30.3607 16.4838 45.538 7.24071 39.3539 1.32843Z" fill="#819D92"/>
</svg>
