<svg width="41" height="47" viewBox="0 0 41 47" fill="none" xmlns="http://www.w3.org/2000/svg">
<path d="M15.6094 9.11743L8.94459 8.62422L7.93848 22.2199L14.6033 22.7131L15.6094 9.11743Z" fill="#152828"/>
<path d="M15.6094 9.11743L8.94459 8.62422L8.66406 12.3763C9.96608 14.9343 13.2031 17.752 14.981 17.6093L15.6094 9.11743Z" fill="#070D0D"/>
<path d="M14.6568 23.0381L14.7436 20.8327C13.0189 20.4335 10.3772 21.0798 8.85624 18.9745C8.67132 18.7185 8.44944 18.6228 8.20341 18.6623L8.03903 21.0236L14.6568 23.0381Z" fill="#2A5050"/>
<path d="M15.7717 22.4303C14.6513 20.266 10.55 22.4449 8.49492 19.6002C6.43981 16.7555 -0.180949 33.6987 6.23073 36.1923C12.6424 38.6859 16.8921 24.5946 15.7717 22.4303Z" fill="#819D92"/>
<path d="M9.79131 36.4995C10.4866 34.9198 10.0047 33.0584 8.66119 31.9751C6.28094 30.0558 2.94895 32.6916 4.26885 35.4497L4.40584 35.736L3.64731 38.4937L7.29456 40.5995C8.52717 39.124 9.16981 37.9114 9.79131 36.4995Z" fill="#152828"/>
<path d="M10.0181 35.7843C10.3071 34.5618 10.0045 33.0591 8.66096 31.9757C7.4294 30.9826 5.87452 31.169 4.97811 32.0409C7.44494 31.3809 9.80648 33.0223 10.0181 35.7843Z" fill="#070D0D"/>
<ellipse cx="1.74558" cy="3.41918" rx="1.74558" ry="3.41918" transform="matrix(-0.707107 -0.707107 -0.707107 0.707107 6.76428 33.5552)" fill="#A9C1B8"/>
<path d="M4.01559 40.4855C2.03333 40.9388 1.21636 41.9412 1.64273 42.6797C2.0691 43.4181 4.06473 43.4132 5.51126 42.5781C6.95779 41.7429 7.72054 40.3214 7.29418 39.5829C6.86781 38.8444 5.18636 38.4577 4.01559 40.4855Z" fill="#A9C1B8"/>
<path d="M6.55958 39.0516L1.66456 42.0174C1.54468 42.1613 1.63431 42.4891 1.63431 42.4891C4.82335 42.4429 6.38904 40.8901 6.55958 39.0516Z" fill="#8EADA1"/>
<path d="M2.80702 38.9931C0.565981 39.5055 -0.357638 40.6387 0.124391 41.4736C0.60642 42.3085 2.86258 42.3029 4.49795 41.3588C6.13332 40.4146 6.99565 38.8075 6.51362 37.9726C6.03159 37.1377 4.13063 36.7005 2.80702 38.9931Z" fill="#A9C1B8"/>
<path d="M9.54864 0.323077C1.50407 3.23564 11.6584 17.8191 15.3936 16.4668C19.1288 15.1144 17.5932 -2.58949 9.54864 0.323077Z" fill="#819D92"/>
</svg>
