<svg width="41" height="47" viewBox="0 0 41 47" fill="none" xmlns="http://www.w3.org/2000/svg">
<path d="M15.6095 9.11743L8.94471 8.62422L7.93861 22.2199L14.6034 22.7131L15.6095 9.11743Z" fill="#2A5050"/>
<path d="M15.6095 9.11743L8.94471 8.62422L8.66418 12.3763C9.9662 14.9343 13.2032 17.752 14.9811 17.6093L15.6095 9.11743Z" fill="#152828"/>
<path d="M14.6568 23.0381L14.7436 20.8327C13.0189 20.4335 10.3772 21.0798 8.85624 18.9745C8.67132 18.7185 8.44944 18.6228 8.20341 18.6623L8.03903 21.0236L14.6568 23.0381Z" fill="#468586"/>
<path d="M15.7718 22.4303C14.6514 20.266 10.5501 22.4449 8.49498 19.6002C6.43987 16.7555 -0.180888 33.6987 6.23079 36.1923C12.6425 38.6859 16.8922 24.5946 15.7718 22.4303Z" fill="#BAD3CA"/>
<path d="M9.79143 36.4995C10.4867 34.9198 10.0049 33.0584 8.66132 31.9751C6.28106 30.0558 2.94907 32.6916 4.26897 35.4497L4.40596 35.736L3.64743 38.4937L7.29469 40.5995C8.52729 39.124 9.16994 37.9114 9.79143 36.4995Z" fill="#2A5050"/>
<path d="M10.0182 35.7843C10.3073 34.5618 10.0047 33.0591 8.66114 31.9757C7.42958 30.9826 5.8747 31.169 4.97829 32.0409C7.44512 31.3809 9.80666 33.0223 10.0182 35.7843Z" fill="#152828"/>
<ellipse cx="1.74558" cy="3.41918" rx="1.74558" ry="3.41918" transform="matrix(-0.707107 -0.707107 -0.707107 0.707107 6.76428 33.5552)" fill="#D2E3DD"/>
<path d="M4.01565 40.4855C2.03339 40.9388 1.21642 41.9412 1.64279 42.6797C2.06916 43.4181 4.06479 43.4132 5.51132 42.5781C6.95785 41.7429 7.7206 40.3214 7.29424 39.5829C6.86787 38.8444 5.18642 38.4577 4.01565 40.4855Z" fill="#D2E3DD"/>
<path d="M6.55964 39.0516L1.66462 42.0174C1.54474 42.1613 1.63437 42.4891 1.63437 42.4891C4.82341 42.4429 6.3891 40.8901 6.55964 39.0516Z" fill="#AECAC0"/>
<path d="M2.80708 38.9931C0.566042 39.5055 -0.357577 40.6387 0.124452 41.4736C0.606481 42.3085 2.86264 42.3029 4.49801 41.3588C6.13338 40.4146 6.99571 38.8075 6.51368 37.9726C6.03165 37.1377 4.13069 36.7005 2.80708 38.9931Z" fill="#D2E3DD"/>
<path d="M9.54864 0.323077C1.50407 3.23564 11.6584 17.8191 15.3936 16.4668C19.1288 15.1144 17.5932 -2.58949 9.54864 0.323077Z" fill="#BAD3CA"/>
</svg>
