<svg width="41" height="48" viewBox="0 0 41 48" fill="none" xmlns="http://www.w3.org/2000/svg">
<rect width="6.67546" height="13.6174" transform="matrix(-0.942795 0.333373 0.333373 0.942795 16.701 6.85999)" fill="#2A5050"/>
<path d="M10.4067 9.08536L14.9463 21.9238L19.9772 20.1448L21.4188 19.9737L20.6126 17.9217C20.6124 17.9217 20.6121 17.9218 20.6119 17.9218L16.7004 6.85995L10.4067 9.08536Z" fill="#2A5050"/>
<path d="M17.7479 9.82943L18.943 13.2028C19.0608 15.1921 18.194 16.5663 17.2586 16.8747C16.0676 17.2673 14.3336 16.598 12.7172 15.6314L11.4475 12.0575L17.7479 9.82943Z" fill="#152828"/>
<path d="M21.4193 19.9731L20.613 17.9212C18.8754 18.2487 16.9788 20.1973 14.4823 18.586C13.0125 17.3127 13.7598 18.3944 13.7598 18.5626L14.5578 20.7883L21.4193 19.9731Z" fill="#468586"/>
<path d="M22.3758 19.9575C21.2941 17.1931 15.0866 22.673 14.0297 19.3307C10.6745 22.8107 6.87417 29.8237 10.4061 32.7404C15.7047 37.116 24.7274 25.9672 22.3758 19.9575Z" fill="#BAD3CA"/>
<path d="M10.8471 34.4849C12.2375 33.4657 12.7503 31.6149 12.1292 30.0067C11.0287 27.1576 6.82994 27.7736 6.59421 30.8187L6.56975 31.1348L4.53626 33.1415L6.63963 36.7847C8.44278 36.1239 9.6043 35.396 10.8471 34.4849Z" fill="#2A5050"/>
<path d="M11.4004 33.9789C12.261 33.0656 12.7498 31.6146 12.1286 30.0064C11.5592 28.5323 10.1211 27.9169 8.91024 28.2235C11.3737 28.8846 12.5969 31.4839 11.4004 33.9789Z" fill="#152828"/>
<ellipse cx="1.74361" cy="3.41531" rx="1.74361" ry="3.41531" transform="matrix(-0.258819 -0.965926 -0.965926 0.258819 9.69861 30.4261)" fill="#D2E3DD"/>
<path d="M3.85979 35.0497C1.91868 34.4518 0.711345 34.9108 0.711345 35.7626C0.711345 36.6144 2.44012 37.6068 4.10854 37.6068C5.77696 37.6068 7.14673 36.7581 7.14673 35.9063C7.14673 35.0545 5.88533 33.8803 3.85979 35.0497Z" fill="#D2E3DD"/>
<path d="M6.7771 35.0791L1.15435 35.0762C0.793776 35.1964 0.729699 35.5569 0.729699 35.5569C3.51146 37.1096 5.71136 36.5843 6.7771 35.0791Z" fill="#AECAC0"/>
<path d="M3.55947 33.154C1.36496 32.478 7.66488e-06 32.997 7.64002e-06 33.96C7.61517e-06 34.9229 1.95447 36.0449 3.84069 36.0449C5.72692 36.0449 7.27551 35.0854 7.27551 34.1224C7.27551 33.1595 5.84944 31.8319 3.55947 33.154Z" fill="#D2E3DD"/>
<path d="M9.81171 0.475096C2.03893 4.02932 13.3353 17.7237 16.9443 16.0734C20.5534 14.4231 17.5845 -3.07912 9.81171 0.475096Z" fill="#BAD3CA"/>
</svg>
