<svg width="40" height="48" viewBox="0 0 40 48" fill="none" xmlns="http://www.w3.org/2000/svg">
<path d="M14.3638 7.0083L8.34601 9.91325L14.2719 22.1892L20.2897 19.2842L14.3638 7.0083Z" fill="#2A5050"/>
<path d="M14.3638 7.0083L8.34601 9.91325L9.9931 13.3336C12.3994 14.8977 16.597 15.6883 18.0651 14.6758L14.3638 7.0083Z" fill="#152828"/>
<path d="M20.4975 19.5386L19.4702 17.5855C17.7772 18.102 15.8127 19.9824 13.4431 18.9197C13.155 18.7905 12.915 18.8185 12.7217 18.9757L13.7599 21.1027L20.4975 19.5386Z" fill="#468586"/>
<path d="M21.1595 18.4538C19.1073 17.1399 16.6452 21.0771 13.4434 19.6412C10.2416 18.2053 12.9792 36.187 19.7779 35.1408C26.5766 34.0946 23.2117 19.7678 21.1595 18.4538Z" fill="#BAD3CA"/>
<path d="M21.7143 40.3384C21.3479 38.2115 21.0508 36.4874 22.7996 36.2464C24.5484 36.0054 24.8455 37.7295 25.2119 39.8564C25.5784 41.9832 25.0925 43.8153 24.1266 43.9484C23.1608 44.0815 22.0808 42.4652 21.7143 40.3384Z" fill="#D2E3DD"/>
<path d="M22.3384 42.6134L21.1508 36.841C21.1549 36.66 21.3514 36.5279 21.3514 36.5279C22.9743 39.0194 23.0932 41.3524 22.3384 42.6134Z" fill="#AECAC0"/>
<path d="M19.0943 41.5521C18.7279 39.4252 18.4308 37.7011 20.091 37.4723C21.7512 37.2435 22.0482 38.9677 22.4147 41.0945C22.7811 43.2214 22.3349 45.048 21.418 45.1743C20.5011 45.3007 19.4608 43.679 19.0943 41.5521Z" fill="#D2E3DD"/>
<path d="M19.6072 42.9716L18.4196 37.1992C18.4238 37.0182 18.6203 36.886 18.6203 36.886C20.2432 39.3775 20.3621 41.7106 19.6072 42.9716Z" fill="#AECAC0"/>
<path d="M16.2931 41.0956C15.8083 38.9889 15.4152 37.281 17.0029 36.9598C18.5906 36.6386 18.9836 38.3465 19.4685 40.4532C19.9533 42.56 19.6355 44.4116 18.7586 44.589C17.8818 44.7664 16.7779 43.2024 16.2931 41.0956Z" fill="#D2E3DD"/>
<path d="M24.3431 35.8411L27.0952 33.4367C24.7841 28.8018 18.6545 27.4326 15.9613 30.8633C14.2064 33.7388 15.0587 35.0722 15.8701 38.3967C18.7391 39.2336 21.405 38.7178 24.5964 37.3076L24.3431 35.8411Z" fill="#2A5050"/>
<path d="M15.0388 33.0353C17.7639 29.2004 21.3668 29.5718 25.0973 30.8699C22.4929 28.548 18.0196 28.0937 15.9051 30.8696C15.3796 31.7538 15.142 32.3403 15.0388 33.0353Z" fill="#152828"/>
<path d="M24.5004 35.8987C21.9974 35.2947 20.989 32.7149 22.5553 31.4967C25.4691 29.2303 27.8234 34.1672 28.5083 35.4431C29.1931 36.7189 29.2201 37.9773 28.4162 38.5091C27.6122 39.0409 25.949 38.2839 24.5004 35.8987Z" fill="#D2E3DD"/>
<path d="M5.44882 1.39737C-0.600906 7.44708 14.7803 16.3468 17.5893 13.5378C20.3983 10.7288 11.4985 -4.65233 5.44882 1.39737Z" fill="#BAD3CA"/>
</svg>
