<svg width="41" height="48" viewBox="0 0 41 48" fill="none" xmlns="http://www.w3.org/2000/svg">
<rect x="23.6721" y="6.85999" width="6.67546" height="13.6174" transform="rotate(19.4736 23.6721 6.85999)" fill="#152828"/>
<path d="M29.9664 9.08536L25.4269 21.9238L20.3959 20.1448L18.9543 19.9737L19.7606 17.9217C19.7608 17.9217 19.761 17.9218 19.7613 17.9218L23.6728 6.85995L29.9664 9.08536Z" fill="#152828"/>
<path d="M22.6253 9.82943L21.4302 13.2028C21.3124 15.1921 22.1792 16.5663 23.1146 16.8747C24.3055 17.2673 26.0396 16.598 27.656 15.6314L28.9256 12.0575L22.6253 9.82943Z" fill="#070D0D"/>
<path d="M18.9539 19.9731L19.7601 17.9212C21.4978 18.2487 23.3943 20.1973 25.8909 18.586C27.3607 17.3127 26.6133 18.3944 26.6133 18.5626L25.8154 20.7883L18.9539 19.9731Z" fill="#2A5050"/>
<path d="M17.9974 19.9575C19.0791 17.1931 25.2866 22.673 26.3435 19.3307C29.6987 22.8107 33.499 29.8237 29.967 32.7404C24.6684 37.116 15.6458 25.9672 17.9974 19.9575Z" fill="#819D92"/>
<path d="M29.5261 34.4849C28.1357 33.4657 27.6229 31.6149 28.244 30.0067C29.3445 27.1576 33.5432 27.7736 33.779 30.8187L33.8034 31.1348L35.8369 33.1415L33.7335 36.7847C31.9304 36.1239 30.7689 35.396 29.5261 34.4849Z" fill="#152828"/>
<path d="M28.9728 33.9789C28.1122 33.0656 27.6234 31.6146 28.2446 30.0064C28.8139 28.5323 30.252 27.9169 31.4629 28.2235C28.9994 28.8846 27.7763 31.4839 28.9728 33.9789Z" fill="#070D0D"/>
<ellipse cx="34.4248" cy="29.6259" rx="1.74361" ry="3.41531" transform="rotate(-75 34.4248 29.6259)" fill="#A9C1B8"/>
<path d="M36.5134 35.0497C38.4545 34.4518 39.6618 34.9108 39.6618 35.7626C39.6618 36.6144 37.933 37.6068 36.2646 37.6068C34.5962 37.6068 33.2264 36.7581 33.2264 35.9063C33.2264 35.0545 34.4878 33.8803 36.5134 35.0497Z" fill="#A9C1B8"/>
<path d="M33.5961 35.0791L39.2188 35.0762C39.5794 35.1964 39.6435 35.5569 39.6435 35.5569C36.8617 37.1096 34.6618 36.5843 33.5961 35.0791Z" fill="#8EADA1"/>
<path d="M36.8137 33.154C39.0082 32.478 40.3732 32.997 40.3732 33.96C40.3732 34.9229 38.4187 36.0449 36.5325 36.0449C34.6462 36.0449 33.0977 35.0854 33.0977 34.1224C33.0977 33.1595 34.5237 31.8319 36.8137 33.154Z" fill="#A9C1B8"/>
<path d="M30.5615 0.475096C38.3342 4.02932 27.0379 17.7237 23.4288 16.0734C19.8198 14.4231 22.7887 -3.07912 30.5615 0.475096Z" fill="#819D92"/>
</svg>
