<svg width="66" height="48" viewBox="0 0 66 48" fill="none" xmlns="http://www.w3.org/2000/svg">
<rect x="29.7003" y="10.9253" width="6.68301" height="13.6328" transform="rotate(-49.0059 29.7003 10.9253)" fill="#152828"/>
<path d="M34.0841 5.88061L44.3807 14.8066L40.8695 18.8556L40.1806 20.1353L38.5656 18.6309L38.566 18.6302L29.7002 10.9248L34.0841 5.88061Z" fill="#152828"/>
<path d="M36.3208 16.6793C37.1463 13.9814 41.3002 15.0209 42.498 13.1903L43.1112 13.6905L43.3528 17.1185L36.8106 17.1186L36.3208 16.6793Z" fill="#2A5050"/>
<path d="M59.0304 15.5107L56.6685 13.1908C52.0804 15.5948 50.8841 19.6895 54.3685 22.3136C57.279 24.0105 59.4323 23.3338 61.9031 22.2534C62.6823 19.3679 62.0344 18.8077 60.5602 15.6448L59.0304 15.5107Z" fill="#152828"/>
<path d="M54.263 22.4552L53.1793 16.1979C53.4201 15.7166 53.6419 15.5325 54.0224 15.1151C53.8171 17.4569 56.6614 20.8974 55.707 22.9365L54.263 22.4552Z" fill="#2A5050"/>
<path d="M62.4207 19.6728C64.0392 18.4418 65.3322 18.4572 65.6258 19.2579C65.9193 20.0585 64.6364 21.5871 63.0681 22.1621C61.4999 22.7371 59.9199 22.4114 59.6264 21.6107C59.3328 20.8101 60.1138 19.2716 62.4207 19.6728Z" fill="#A9C1B8"/>
<path d="M60.0119 20.2695L64.8514 18.7246C65.092 18.6908 65.313 18.8592 65.313 18.8592C63.4635 21.193 61.4442 21.3493 60.0119 20.2695Z" fill="#8EADA1"/>
<path d="M62.2492 17.7552C63.8677 16.5242 65.1607 16.5396 65.4542 17.3403C65.7478 18.1409 64.4648 19.6695 62.8966 20.2445C61.3284 20.8194 59.7484 20.4937 59.4549 19.6931C59.1613 18.8925 59.9423 17.354 62.2492 17.7552Z" fill="#A9C1B8"/>
<path d="M59.5805 18.6189L64.732 16.7996C65.0929 16.7996 65.2939 17.072 65.2939 17.072C63.2525 19.4761 61.0863 19.6718 59.5805 18.6189Z" fill="#8EADA1"/>
<path d="M61.8768 15.6303C63.7066 14.2386 65.1684 14.2561 65.5003 15.1612C65.8322 16.0664 64.3817 17.7945 62.6088 18.4446C60.8358 19.0946 59.0496 18.7264 58.7177 17.8213C58.3858 16.9161 59.2688 15.1768 61.8768 15.6303Z" fill="#A9C1B8"/>
<ellipse cx="1.74558" cy="3.41918" rx="1.74558" ry="3.41918" transform="matrix(-0.422458 -0.906382 -0.906382 0.422458 61.9667 14.4613)" fill="#A9C1B8"/>
<path d="M36.7333 17.0729C37.5069 14.121 41.8653 15.7652 42.7947 13.4309C48.4137 12.7156 53.3956 15.8374 53.3956 15.8374C53.14 18.7531 57.7546 22.5395 53.7168 24.5077C47.6106 26.9951 35.6004 21.3955 36.7333 17.0729Z" fill="#819D92"/>
<path d="M29.6998 10.9249L33.0982 13.8781C35.3647 14.9347 37.4591 15.2682 38.484 14.4122C39.3206 13.7135 39.5052 12.1719 39.1988 10.3136L34.0836 5.88098L29.6998 10.9249Z" fill="#070D0D"/>
<path d="M26.4708 1.32843C32.6549 -4.58385 41.2068 10.9934 38.3354 13.7386C35.464 16.4838 20.2867 7.24071 26.4708 1.32843Z" fill="#819D92"/>
</svg>
