<svg width="40" height="48" viewBox="0 0 40 48" fill="none" xmlns="http://www.w3.org/2000/svg">
<rect x="25.3132" y="5.56787" width="6.66646" height="13.5991" transform="rotate(25.7677 25.3132 5.56787)" fill="#152828"/>
<path d="M25.3132 5.56787L31.3168 8.46594L29.6299 11.9494C27.2293 13.5098 23.0854 14.2273 21.6207 13.2172L25.3132 5.56787Z" fill="#070D0D"/>
<path d="M19.1938 18.0681L20.2187 16.1196C21.9077 16.635 23.8675 18.5109 26.2315 17.4507C26.5189 17.3218 26.7584 17.3498 26.9512 17.5066L25.9154 19.6285L19.1938 18.0681Z" fill="#2A5050"/>
<path d="M18.5336 16.985C20.5809 15.6742 23.0372 19.6021 26.2314 18.1696C29.4256 16.7371 26.6945 34.6762 19.9119 33.6325C13.1292 32.5887 16.4862 18.2959 18.5336 16.985Z" fill="#819D92"/>
<path d="M16.6824 32.1217C16.8696 30.4103 18.2142 29.0426 19.9153 28.7768C22.9288 28.306 24.4926 32.2449 21.9767 33.9692L21.7156 34.1482L20.9954 36.9089H16.7943C16.4654 35.0195 16.515 33.6515 16.6824 32.1217Z" fill="#152828"/>
<path d="M16.8433 31.3902C17.2034 30.1899 18.2142 29.0426 19.9152 28.7768C21.4744 28.5332 22.7247 29.4697 23.0643 30.67C21.2624 28.8695 18.4037 29.1096 16.8433 31.3902Z" fill="#070D0D"/>
<ellipse cx="23.3315" cy="33.9328" rx="1.74126" ry="3.41071" transform="rotate(-15 23.3315 33.9328)" fill="#A9C1B8"/>
<path d="M19.6841 38.4466C21.1705 39.8269 21.3763 41.1003 20.6396 41.5256C19.903 41.9509 18.1814 40.9513 17.3483 39.5083C16.5153 38.0654 16.5653 36.4569 17.302 36.0316C18.0386 35.6063 19.6841 36.1109 19.6841 38.4466Z" fill="#F2F2F3"/>
<path d="M19.6841 38.4466C21.1705 39.8269 21.3763 41.1003 20.6396 41.5256C19.903 41.9509 18.1814 40.9513 17.3483 39.5083C16.5153 38.0654 16.5653 36.4569 17.302 36.0316C18.0386 35.6063 19.6841 36.1109 19.6841 38.4466Z" fill="#A9C1B8"/>
<path d="M18.2024 35.9394L20.9519 40.943C20.9837 41.1271 20.7427 41.3656 20.7427 41.3656C18.0109 39.7351 17.4328 37.6127 18.2024 35.9394Z" fill="#8EADA1"/>
<path d="M21.4728 37.7596C23.1533 39.32 23.3859 40.7596 22.5531 41.2405C21.7203 41.7213 19.774 40.5912 18.8322 38.9599C17.8903 37.3286 17.9469 35.5101 18.7797 35.0293C19.6126 34.5485 21.4728 35.1189 21.4728 37.7596Z" fill="#A9C1B8"/>
<path d="M34.7796 1.87959C39.8831 8.74638 23.369 15.3095 20.9994 12.1211C18.6298 8.93269 29.6761 -4.9872 34.7796 1.87959Z" fill="#819D92"/>
</svg>
