<svg width="88" height="101" viewBox="0 0 88 101" fill="none" xmlns="http://www.w3.org/2000/svg">
<path d="M33.7718 75.8953C33.7718 73.5167 54.2254 73.5167 54.2254 75.8953C54.2254 84.1559 47.6012 87.8273 43.9986 87.8273C40.396 87.8273 33.7717 84.3853 33.7718 75.8953Z" fill="#BAD3CA"/>
<path d="M33.5312 71.2239H54.466L53.6614 75.2568C53.6614 75.2568 50.6159 80.6085 43.9986 80.6085C37.3813 80.6085 34.3358 75.2568 34.3358 75.2568L33.5312 71.2239Z" fill="#152828"/>
<path d="M33.8923 73.0288C36.8045 77.8895 50.5609 78.4671 54.1052 73.0288L53.5758 75.6757C53.5758 75.6757 50.6909 80.9824 44.0736 80.9824C37.4562 80.9824 34.4107 75.6308 34.4107 75.6308L33.8923 73.0288Z" fill="#2A5050"/>
<path d="M34.3014 75.0747C39.9562 81.4514 47.9692 81.8124 53.6986 75.0747L53.5759 75.6763C53.5759 75.6763 50.6454 81.1387 43.9533 80.9943C37.2611 80.8498 34.4097 75.6282 34.4097 75.6282L34.3014 75.0747Z" fill="#468586"/>
<path d="M29.8014 47.5701L34.883 45.9276C35.4565 45.7422 35.9745 45.4161 36.3897 44.9791L36.9 44.4419H43.9986H50.9864L51.6411 45.0702C52.0354 45.4485 52.5103 45.7324 53.0302 45.9004L58.1958 47.5701C58.1958 47.5701 65.7756 75.7238 43.9986 75.7238C22.2216 75.7238 29.8014 47.5701 29.8014 47.5701Z" fill="#D2E3DD"/>
<path d="M37.6682 42.0354H50.181L51.3841 45.6449C51.3841 45.6449 51.3841 49.2543 43.9246 49.2543C36.465 49.2543 36.465 45.6449 36.465 45.6449L37.6682 42.0354Z" fill="#2A5050"/>
<path d="M36.5853 45.2842C36.5853 45.2842 37.6682 48.4124 43.9246 48.4124C50.3013 48.2921 51.2638 45.2842 51.2638 45.2842L51.3841 45.6451C51.3841 45.6451 51.3841 49.2546 43.9246 49.2546C36.465 49.2546 36.465 45.6451 36.465 45.6451L36.5853 45.2842Z" fill="#468586"/>
<path d="M37.6681 42.0354H50.1809L50.9822 44.4417C47.8949 45.6449 40.315 45.5245 36.8668 44.4417L37.6681 42.0354Z" fill="#152828"/>
<path d="M29.4734 49.8491L31.8768 55.7249L17.8906 64.2457L14.5524 58.4638L29.4734 49.8491Z" fill="#2A5050"/>
<ellipse cx="5.0395" cy="10.8744" rx="5.0395" ry="10.8744" transform="matrix(-0.930944 0.365161 0.365161 0.930944 14.7957 42.3286)" fill="#BAD3CA"/>
<path d="M19.8768 55.3896C19.8411 55.8146 19.8926 56.2024 20.0487 56.5371C20.8225 58.196 24.2136 58.7585 27.7157 58.2598L31.8768 55.7246L29.4735 49.8496L19.8768 55.3896Z" fill="#152828"/>
<path d="M10.4854 40.1156C11.0093 42.2073 11.4341 43.9029 13.1296 43.417C14.8251 42.931 14.4003 41.2354 13.8763 39.1437C13.3524 37.0521 12.1685 35.574 11.2321 35.8424C10.2957 36.1108 9.96139 38.024 10.4854 40.1156Z" fill="#D2E3DD"/>
<path d="M10.137 37.7836L11.3826 43.5385C11.4595 43.7022 11.6924 43.7436 11.6924 43.7436C12.1695 40.8114 11.336 38.6312 10.137 37.7836Z" fill="#AECAC0"/>
<path d="M7.60188 40.0664C8.12585 42.158 8.55061 43.8537 10.1602 43.3923C11.7698 42.931 11.345 41.2354 10.821 39.1437C10.2971 37.0521 9.15168 35.563 8.26274 35.8178C7.37379 36.0726 7.07792 37.9747 7.60188 40.0664Z" fill="#D2E3DD"/>
<path d="M7.49726 38.5612L8.74291 44.3161C8.8198 44.4798 9.05273 44.5212 9.05273 44.5212C9.52978 41.589 8.69628 39.4088 7.49726 38.5612Z" fill="#AECAC0"/>
<path d="M5.22533 41.6124C5.63299 43.7335 5.96347 45.453 7.54412 45.1054C9.12477 44.7578 8.7943 43.0383 8.38664 40.9172C7.97897 38.7961 6.94082 37.2323 6.06785 37.4242C5.19488 37.6162 4.81767 39.4913 5.22533 41.6124Z" fill="#D2E3DD"/>
<path d="M14.7052 43.1652L18.1912 44.2511C17.9508 49.4201 12.902 53.1466 9.05534 51.099C6.29047 49.1797 6.53094 47.617 5.9299 44.2511C8.21387 42.3278 10.8585 41.7227 14.3445 41.7227L14.7052 43.1652Z" fill="#2A5050"/>
<path d="M7.36392 49.5255C11.4029 51.9297 14.4799 50.1746 17.3649 47.4819C15.9224 50.6555 12.0622 52.7711 9.00893 51.0882C8.17159 50.4924 7.73893 50.119 7.36392 49.5255Z" fill="#468586"/>
<path d="M14.825 43.0494C12.7814 44.6121 12.9016 47.3769 14.825 47.8578C18.403 48.7523 18.561 43.2898 18.6717 41.8473C18.7824 40.4048 18.2989 39.2438 17.3494 39.0825C16.3999 38.9212 15.1856 40.2846 14.825 43.0494Z" fill="#D2E3DD"/>
<path d="M36.4594 49.3402C39.6393 57.2829 21.9966 59.4094 20.5201 55.7215C19.0437 52.0336 33.2795 41.3975 36.4594 49.3402Z" fill="#BAD3CA"/>
<path d="M58.9841 49.6987L57.8755 56.2815L70.567 64.0953L73.9051 58.3134L58.9841 49.6987Z" fill="#2A5050"/>
<path d="M68.4092 55.1206C68.445 55.5456 68.3934 55.9334 68.2373 56.2681C67.4635 57.9269 64.1525 58.489 60.6504 57.9903L56.4824 55.4278L58.8125 49.5806L68.4092 55.1206Z" fill="#152828"/>
<ellipse cx="74.3824" cy="54.1417" rx="5.0395" ry="10.8744" transform="rotate(21.4175 74.3824 54.1417)" fill="#BAD3CA"/>
<path d="M78.4311 39.8913C77.9072 41.9827 77.4825 43.6781 75.7873 43.1922C74.092 42.7063 74.5167 41.0109 75.0406 38.9196C75.5645 36.8282 76.7482 35.3503 77.6845 35.6187C78.6207 35.887 78.955 37.8 78.4311 39.8913Z" fill="#D2E3DD"/>
<path d="M74.2128 42.9413L70.7272 44.0271C70.9676 49.1954 76.0157 52.9214 79.8618 50.874C82.6263 48.955 82.1752 47.3925 82.7761 44.0271C80.4925 42.1041 78.059 41.499 74.5734 41.499L74.2128 42.9413Z" fill="#2A5050"/>
<path d="M74.2128 42.9413L70.7272 44.0271C70.9676 49.1954 76.0157 52.9214 79.8618 50.874C82.6263 48.955 82.1752 47.3925 82.7761 44.0271C80.4925 42.1041 78.059 41.499 74.5734 41.499L74.2128 42.9413Z" fill="#2A5050"/>
<path d="M81.6177 49.1519C77.5792 51.5557 74.3897 49.8442 71.5051 47.1519C72.9474 50.3249 76.7474 52.5846 79.8003 50.9019C80.6753 50.4019 81.2427 49.7452 81.6177 49.1519Z" fill="#468586"/>
<path d="M79.4527 44.0719C79.8591 42.4333 80.1885 41.105 81.7946 41.5775C83.4007 42.0499 83.0712 43.3783 82.6649 45.0169C82.2585 46.6555 81.2099 47.7723 80.3229 47.5114C79.4359 47.2504 79.0463 45.7105 79.4527 44.0719Z" fill="#D2E3DD"/>
<path d="M79.282 45.5852L80.7005 41.554C80.7005 41.554 81.0442 41.4804 81.1363 41.4804C81.4004 43.8165 80.535 45.4373 79.3544 46.0834L79.282 45.5852Z" fill="#AECAC0"/>
<path d="M77.4004 42.6734C77.8223 41.036 78.1643 39.7086 79.7167 40.1653C81.2691 40.622 80.9271 41.9494 80.5052 43.5868C80.0833 45.2242 79.0463 46.347 78.1889 46.0948C77.3316 45.8426 76.9785 44.3107 77.4004 42.6734Z" fill="#D2E3DD"/>
<path d="M74.4249 41.5265L74.7787 40.0043C75.4364 40.3322 75.896 40.8552 75.8629 41.4931C75.8623 41.5044 75.8615 41.5155 75.8606 41.5265C75.8597 41.5375 74.4249 41.5265 74.4249 41.5265Z" fill="#AECAC0"/>
<path d="M73.6897 42.825C75.733 44.3875 76.0153 47.1519 74.0922 47.6327C70.5147 48.5271 70.5552 43.7866 70.4445 42.3442C70.1679 38.7385 75.7253 39.5794 75.6128 41.7433C75.5532 42.8889 73.6897 42.825 73.6897 42.825Z" fill="#D2E3DD"/>
<path d="M51.7207 49.2606C48.5408 57.2033 66.1835 59.3299 67.66 55.6419C69.1364 51.954 54.9006 41.3179 51.7207 49.2606Z" fill="#BAD3CA"/>
<path d="M73.9569 23.8224C73.9569 19.8355 70.7249 16.6035 66.738 16.6035V33.207C70.7249 33.207 73.9569 29.975 73.9569 25.9881V23.8224Z" fill="#2A5050"/>
<path d="M14.0399 23.8224C14.0399 19.8355 17.2719 16.6035 21.2588 16.6035V33.207C17.2719 33.207 14.0399 29.975 14.0399 25.9881V23.8224Z" fill="#2A5050"/>
<path d="M69.1442 22.0179C69.1442 39.7513 57.886 44.0356 43.9983 44.0356C30.1106 44.0356 18.8524 39.7513 18.8524 22.0179C18.8524 9.04514 27.7043 0.000244141 43.9983 0.000244141C57.886 0.000244141 69.1442 6.66485 69.1442 22.0179Z" fill="#BAD3CA"/>
<path d="M44.1534 11.0029C61.8498 11.0029 64.4688 15.3169 64.4688 25.2549C64.4688 25.3743 64.4656 25.4928 64.4639 25.6104C64.3809 16.5301 61.5753 12.5801 44.1534 12.5801C26.5448 12.5801 23.9179 17.9415 23.8409 25.6777C23.8387 25.5382 23.838 25.3971 23.838 25.2549C23.838 16.8576 26.2687 11.0029 44.1534 11.0029Z" fill="#CEE6DD"/>
<path d="M44.1534 39.4297C26.457 39.4297 23.838 35.1157 23.838 25.1777C23.838 25.0583 23.8411 24.9398 23.8428 24.8223C23.9258 33.9025 26.7315 37.8525 44.1534 37.8525C61.762 37.8525 64.3889 32.4911 64.4659 24.7549C64.468 24.8944 64.4688 25.0355 64.4688 25.1777C64.4688 33.575 62.0381 39.4297 44.1534 39.4297Z" fill="#92B8AA"/>
<path d="M64.4686 25.2354C64.4686 36.079 56.5982 38.6988 44.1532 38.6988C30.8095 38.6988 23.8379 36.079 23.8379 25.2354C23.8379 17.3028 26.2683 11.772 44.1532 11.772C61.8499 11.772 64.4686 15.8473 64.4686 25.2354Z" fill="#EFFBF7"/>
<path d="M63.2664 25.2355C63.2664 34.9173 55.8617 37.2564 44.1532 37.2564C31.599 37.2564 25.0399 34.9173 25.0399 25.2355C25.0399 18.1528 27.3265 13.2146 44.1532 13.2146C60.8027 13.2146 63.2664 16.8532 63.2664 25.2355Z" fill="#2A5050"/>
<path d="M44.1531 13.2146C60.8022 13.2146 63.2664 16.8573 63.2664 25.2488C63.2664 25.3494 63.2631 25.4495 63.2615 25.5486C63.1833 17.8816 60.5437 14.5466 44.1531 14.5466C27.6062 14.5466 25.1208 19.0628 25.0428 25.5828C25.041 25.4725 25.0399 25.361 25.0399 25.2488C25.0399 18.1582 27.3269 13.2146 44.1531 13.2146Z" fill="#152828"/>
<path d="M44.1531 37.218C27.5041 37.218 25.0399 33.5753 25.0399 25.1838C25.0399 25.0832 25.0431 24.9831 25.0447 24.884C25.1229 32.551 27.7626 35.886 44.1531 35.886C60.7001 35.886 63.1854 31.3698 63.2635 24.8499C63.2652 24.9601 63.2664 25.0716 63.2664 25.1838C63.2664 32.2744 60.9794 37.218 44.1531 37.218Z" fill="#468586"/>
<g filter="url(#filter0_f_210_3929)">
<path d="M35.1838 21.9519C37.6773 21.8679 39.2043 24.8596 39.0034 26.9387C38.9798 27.1831 38.9713 27.4287 38.9281 27.6648C38.9257 27.6774 38.9215 27.6898 38.9148 27.6999C38.908 27.7099 38.8992 27.7169 38.8893 27.7193C38.8794 27.7217 38.8689 27.7194 38.8594 27.7132C38.8498 27.707 38.8422 27.6972 38.8353 27.687C38.7141 27.5054 38.5831 27.3276 38.454 27.1592C37.2499 25.5891 36.1542 25.022 35.1705 25.0639C35.164 25.0642 35.1574 25.0642 35.1508 25.0639C34.1633 25.0154 33.0745 25.5736 31.8825 27.155C31.7547 27.3246 31.6251 27.5036 31.5055 27.6866C31.4988 27.6969 31.4913 27.7067 31.4818 27.713C31.4723 27.7192 31.4619 27.7217 31.4519 27.7194C31.442 27.7171 31.4331 27.7102 31.4263 27.7002C31.4195 27.6902 31.4152 27.6778 31.4128 27.6652C31.3683 27.4295 31.3439 27.1857 31.3336 26.94C31.2877 25.8467 31.5063 24.6831 32.1573 23.6553C32.8052 22.6324 34.0156 21.9284 35.1428 21.9519C35.1565 21.9522 35.1702 21.9524 35.1838 21.9519Z" fill="#F1F8F4"/>
<path d="M52.8772 21.9519C55.3707 21.8679 56.8977 24.8596 56.6968 26.9387C56.6731 27.1831 56.6646 27.4287 56.6214 27.6648C56.6191 27.6774 56.6148 27.6898 56.6081 27.6999C56.6014 27.7099 56.5925 27.7169 56.5826 27.7193C56.5727 27.7217 56.5623 27.7194 56.5527 27.7132C56.5432 27.707 56.5355 27.6972 56.5287 27.687C56.4075 27.5054 56.2765 27.3276 56.1473 27.1592C54.9432 25.5891 53.8475 25.022 52.8639 25.0639C52.8573 25.0642 52.8507 25.0642 52.8441 25.0639C51.8566 25.0154 50.7678 25.5736 49.5759 27.155C49.448 27.3246 49.3185 27.5036 49.1989 27.6866C49.1922 27.6969 49.1846 27.7067 49.1751 27.713C49.1656 27.7192 49.1552 27.7217 49.1453 27.7194C49.1354 27.7171 49.1264 27.7102 49.1196 27.7002C49.1129 27.6902 49.1085 27.6778 49.1062 27.6652C49.0617 27.4295 49.0372 27.1857 49.0269 26.94C48.981 25.8467 49.1996 24.6831 49.8507 23.6553C50.4986 22.6324 51.709 21.9284 52.8362 21.9519C52.8499 21.9522 52.8635 21.9524 52.8772 21.9519Z" fill="#F1F8F4"/>
</g>
<path d="M35.1838 21.9519C37.6773 21.8679 39.2043 24.8596 39.0034 26.9387C38.9798 27.1831 38.9713 27.4287 38.9281 27.6648C38.9257 27.6774 38.9215 27.6898 38.9148 27.6999C38.908 27.7099 38.8992 27.7169 38.8893 27.7193C38.8794 27.7217 38.8689 27.7194 38.8594 27.7132C38.8498 27.707 38.8422 27.6972 38.8353 27.687C38.7141 27.5054 38.5831 27.3276 38.454 27.1592C37.2499 25.5891 36.1542 25.022 35.1705 25.0639C35.164 25.0642 35.1574 25.0642 35.1508 25.0639C34.1633 25.0154 33.0745 25.5736 31.8825 27.155C31.7547 27.3246 31.6251 27.5036 31.5055 27.6866C31.4988 27.6969 31.4913 27.7067 31.4818 27.713C31.4723 27.7192 31.4619 27.7217 31.4519 27.7194C31.442 27.7171 31.4331 27.7102 31.4263 27.7002C31.4195 27.6902 31.4152 27.6778 31.4128 27.6652C31.3683 27.4295 31.3439 27.1857 31.3336 26.94C31.2877 25.8467 31.5063 24.6831 32.1573 23.6553C32.8052 22.6324 34.0156 21.9284 35.1428 21.9519C35.1565 21.9522 35.1702 21.9524 35.1838 21.9519Z" fill="#F1F8F4"/>
<path d="M52.8772 21.9519C55.3707 21.8679 56.8977 24.8596 56.6968 26.9387C56.6731 27.1831 56.6646 27.4287 56.6214 27.6648C56.6191 27.6774 56.6148 27.6898 56.6081 27.6999C56.6014 27.7099 56.5925 27.7169 56.5826 27.7193C56.5727 27.7217 56.5623 27.7194 56.5527 27.7132C56.5432 27.707 56.5355 27.6972 56.5287 27.687C56.4075 27.5054 56.2765 27.3276 56.1473 27.1592C54.9432 25.5891 53.8475 25.022 52.8639 25.0639C52.8573 25.0642 52.8507 25.0642 52.8441 25.0639C51.8566 25.0154 50.7678 25.5736 49.5759 27.155C49.448 27.3246 49.3185 27.5036 49.1989 27.6866C49.1922 27.6969 49.1846 27.7067 49.1751 27.713C49.1656 27.7192 49.1552 27.7217 49.1453 27.7194C49.1354 27.7171 49.1264 27.7102 49.1196 27.7002C49.1129 27.6902 49.1085 27.6778 49.1062 27.6652C49.0617 27.4295 49.0372 27.1857 49.0269 26.94C48.981 25.8467 49.1996 24.6831 49.8507 23.6553C50.4986 22.6324 51.709 21.9284 52.8362 21.9519C52.8499 21.9522 52.8635 21.9524 52.8772 21.9519Z" fill="#F1F8F4"/>
<ellipse cx="44" cy="97.1198" rx="13.803" ry="3.00065" fill="#607C7F" fill-opacity="0.2"/>
<defs>
<filter id="filter0_f_210_3929" x="27.9623" y="18.5848" width="32.1175" height="12.5008" filterUnits="userSpaceOnUse" color-interpolation-filters="sRGB">
<feFlood flood-opacity="0" result="BackgroundImageFix"/>
<feBlend mode="normal" in="SourceGraphic" in2="BackgroundImageFix" result="shape"/>
<feGaussianBlur stdDeviation="1.68269" result="effect1_foregroundBlur_210_3929"/>
</filter>
</defs>
</svg>
