<svg width="88" height="101" viewBox="0 0 88 101" fill="none" xmlns="http://www.w3.org/2000/svg">
<path d="M33.7718 75.8953C33.7718 73.5167 54.2254 73.5167 54.2254 75.8953C54.2254 84.1559 47.6012 87.8273 43.9986 87.8273C40.396 87.8273 33.7717 84.3853 33.7718 75.8953Z" fill="#BAD3CA"/>
<path d="M33.5312 71.2239H54.466L53.6614 75.2568C53.6614 75.2568 50.6159 80.6085 43.9986 80.6085C37.3813 80.6085 34.3358 75.2568 34.3358 75.2568L33.5312 71.2239Z" fill="#152828"/>
<path d="M33.8923 73.0288C36.8045 77.8895 50.5609 78.4671 54.1052 73.0288L53.5758 75.6757C53.5758 75.6757 50.6909 80.9824 44.0736 80.9824C37.4562 80.9824 34.4107 75.6308 34.4107 75.6308L33.8923 73.0288Z" fill="#2A5050"/>
<path d="M34.3014 75.0747C39.9562 81.4514 47.9692 81.8124 53.6986 75.0747L53.5759 75.6763C53.5759 75.6763 50.6454 81.1387 43.9533 80.9943C37.2611 80.8498 34.4097 75.6282 34.4097 75.6282L34.3014 75.0747Z" fill="#468586"/>
<path d="M29.8014 47.5701L34.8829 45.9276C35.4565 45.7422 35.9745 45.4161 36.3897 44.9791L36.9 44.4419H43.9986H50.9864L51.6411 45.0702C52.0354 45.4485 52.5103 45.7324 53.0302 45.9004L58.1958 47.5701C58.1958 47.5701 65.7756 75.7238 43.9986 75.7238C22.2216 75.7238 29.8014 47.5701 29.8014 47.5701Z" fill="#D2E3DD"/>
<path d="M37.6682 42.0354H50.181L51.3841 45.6449C51.3841 45.6449 51.3841 49.2543 43.9246 49.2543C36.465 49.2543 36.465 45.6449 36.465 45.6449L37.6682 42.0354Z" fill="#2A5050"/>
<path d="M36.5853 45.2842C36.5853 45.2842 37.6682 48.4124 43.9246 48.4124C50.3013 48.2921 51.2638 45.2842 51.2638 45.2842L51.3841 45.6451C51.3841 45.6451 51.3841 49.2546 43.9246 49.2546C36.465 49.2546 36.465 45.6451 36.465 45.6451L36.5853 45.2842Z" fill="#468586"/>
<path d="M37.6681 42.0354H50.1809L50.9822 44.4417C47.8949 45.6449 40.315 45.5245 36.8668 44.4417L37.6681 42.0354Z" fill="#152828"/>
<path d="M24.7655 55.637L31.4303 55.1438L32.4364 68.7394L25.7716 69.2326L24.7655 55.637Z" fill="#2A5050"/>
<path d="M24.7655 55.637L31.4303 55.1438L31.7108 58.8958C30.4088 61.4538 27.1718 64.2716 25.3939 64.1288L24.7655 55.637Z" fill="#152828"/>
<path d="M25.7182 69.5575L25.6314 67.3521C27.3561 66.953 29.9978 67.5992 31.5188 65.4939C31.7037 65.2379 31.9256 65.1422 32.1716 65.1817L32.336 67.5431L25.7182 69.5575Z" fill="#468586"/>
<path d="M24.6032 68.9498C25.7236 66.7855 29.8249 68.9644 31.88 66.1197C33.9351 63.2751 40.5559 80.2182 34.1442 82.7118C27.7325 85.2054 23.4828 71.1141 24.6032 68.9498Z" fill="#BAD3CA"/>
<path d="M30.5836 83.019C29.8883 81.4393 30.3701 79.578 31.7137 78.4946C34.0939 76.5753 37.4259 79.2111 36.106 81.9692L35.969 82.2555L36.7276 85.0132L33.0803 87.119C31.8477 85.6435 31.2051 84.431 30.5836 83.019Z" fill="#2A5050"/>
<path d="M30.3569 82.304C30.0679 81.0814 30.3704 79.5787 31.714 78.4953C32.9455 77.5023 34.5004 77.6886 35.3968 78.5605C32.93 77.9006 30.5685 79.5419 30.3569 82.304Z" fill="#152828"/>
<ellipse cx="37.2628" cy="81.2581" rx="1.74558" ry="3.41918" transform="rotate(-45 37.2628 81.2581)" fill="#D2E3DD"/>
<path d="M36.3594 87.0052C38.3416 87.4584 39.1586 88.4608 38.7322 89.1993C38.3058 89.9378 36.3102 89.9329 34.8637 89.0977C33.4172 88.2626 32.6544 86.8411 33.0808 86.1026C33.5071 85.3641 35.1886 84.9774 36.3594 87.0052Z" fill="#D2E3DD"/>
<path d="M33.8154 85.5711L38.7104 88.5369C38.8303 88.6808 38.7406 89.0086 38.7406 89.0086C35.5516 88.9624 33.9859 87.4096 33.8154 85.5711Z" fill="#AECAC0"/>
<path d="M37.5679 85.5126C39.809 86.025 40.7326 87.1582 40.2505 87.9931C39.7685 88.828 37.5124 88.8225 35.877 87.8783C34.2416 86.9341 33.3793 85.327 33.8613 84.4921C34.3433 83.6572 36.2443 83.22 37.5679 85.5126Z" fill="#D2E3DD"/>
<path d="M30.7611 46.7852C38.8056 49.6978 28.6513 64.2813 24.9161 62.9289C21.1809 61.5765 22.7165 43.8727 30.7611 46.7852Z" fill="#BAD3CA"/>
<rect width="6.68301" height="13.6328" transform="matrix(-0.655982 -0.754777 -0.754777 0.655982 58.1456 57.8843)" fill="#2A5050"/>
<path d="M53.7618 52.8395L43.4652 61.7655L46.9764 65.8144L47.6653 67.0942L49.2803 65.5897L49.2799 65.5891L58.1457 57.8837L53.7618 52.8395Z" fill="#2A5050"/>
<path d="M51.5251 63.6381C50.6996 60.9403 46.5457 61.9798 45.3478 60.1491L44.7347 60.6493L44.4931 64.0774L51.0353 64.0774L51.5251 63.6381Z" fill="#468586"/>
<path d="M28.8155 62.4698L31.1775 60.1499C35.7655 62.5539 36.9619 66.6486 33.4774 69.2727C30.5669 70.9696 28.4136 70.2929 25.9428 69.2125C25.1636 66.327 25.8116 65.7668 27.2858 62.6039L28.8155 62.4698Z" fill="#2A5050"/>
<path d="M33.5829 69.4143L34.6666 63.157C34.4259 62.6757 34.2041 62.4916 33.8236 62.0742C34.0289 64.416 31.1846 67.8565 32.139 69.8956L33.5829 69.4143Z" fill="#468586"/>
<path d="M25.4252 66.6319C23.8067 65.4009 22.5137 65.4163 22.2201 66.217C21.9266 67.0176 23.2095 68.5462 24.7777 69.1212C26.346 69.6962 27.926 69.3705 28.2195 68.5698C28.5131 67.7692 27.7321 66.2307 25.4252 66.6319Z" fill="#D2E3DD"/>
<path d="M27.834 67.2286L22.9945 65.6837C22.7538 65.6499 22.5329 65.8183 22.5329 65.8183C24.3824 68.1521 26.4017 68.3084 27.834 67.2286Z" fill="#AECAC0"/>
<path d="M25.5966 64.7142C23.9782 63.4832 22.6851 63.4986 22.3916 64.2992C22.098 65.0999 23.381 66.6285 24.9492 67.2035C26.5174 67.7784 28.0974 67.4527 28.391 66.6521C28.6845 65.8515 27.9036 64.313 25.5966 64.7142Z" fill="#D2E3DD"/>
<path d="M28.2654 65.578L23.1139 63.7587C22.7529 63.7587 22.552 64.0311 22.552 64.0311C24.5934 66.4352 26.7596 66.6309 28.2654 65.578Z" fill="#AECAC0"/>
<path d="M25.9691 62.5894C24.1393 61.1977 22.6775 61.2152 22.3456 62.1203C22.0137 63.0255 23.4641 64.7536 25.2371 65.4037C27.01 66.0537 28.7963 65.6855 29.1282 64.7804C29.46 63.8752 28.5771 62.1359 25.9691 62.5894Z" fill="#D2E3DD"/>
<ellipse cx="29.7157" cy="61.2827" rx="1.74558" ry="3.41918" transform="rotate(-65.0101 29.7157 61.2827)" fill="#D2E3DD"/>
<path d="M51.1126 64.032C50.339 61.0801 45.9806 62.7243 45.0512 60.39C39.4321 59.6747 34.4503 62.7965 34.4503 62.7965C34.7059 65.7122 30.0912 69.4986 34.1291 71.4668C40.2353 73.9542 52.2455 68.3546 51.1126 64.032Z" fill="#BAD3CA"/>
<path d="M58.1461 57.884L54.7476 60.8372C52.4812 61.8938 50.3868 62.2273 49.3619 61.3713C48.5253 60.6726 48.3407 59.131 48.6471 57.2727L53.7623 52.8401L58.1461 57.884Z" fill="#152828"/>
<path d="M61.532 48.171C55.3479 42.2587 46.796 57.836 49.6674 60.5811C52.5388 63.3263 67.7161 54.0832 61.532 48.171Z" fill="#BAD3CA"/>
<path d="M73.9569 23.8224C73.9569 19.8355 70.7249 16.6035 66.738 16.6035V33.207C70.7249 33.207 73.9569 29.975 73.9569 25.9881V23.8224Z" fill="#2A5050"/>
<path d="M14.0399 23.8224C14.0399 19.8355 17.2719 16.6035 21.2588 16.6035V33.207C17.2719 33.207 14.0399 29.975 14.0399 25.9881V23.8224Z" fill="#2A5050"/>
<path d="M69.1442 22.0179C69.1442 39.7513 57.886 44.0356 43.9983 44.0356C30.1106 44.0356 18.8524 39.7513 18.8524 22.0179C18.8524 9.04514 27.7043 0.000244141 43.9983 0.000244141C57.886 0.000244141 69.1442 6.66484 69.1442 22.0179Z" fill="#BAD3CA"/>
<path d="M44.1534 11.0029C61.8498 11.0029 64.4688 15.3169 64.4688 25.2549C64.4688 25.3743 64.4656 25.4928 64.4639 25.6104C64.3809 16.5301 61.5752 12.5801 44.1534 12.5801C26.5448 12.5801 23.9179 17.9415 23.8409 25.6777C23.8387 25.5382 23.838 25.3971 23.838 25.2549C23.838 16.8576 26.2687 11.0029 44.1534 11.0029Z" fill="#CEE6DD"/>
<path d="M44.1534 39.4297C26.457 39.4297 23.838 35.1157 23.838 25.1777C23.838 25.0583 23.8411 24.9398 23.8428 24.8223C23.9258 33.9025 26.7315 37.8525 44.1534 37.8525C61.762 37.8525 64.3889 32.4911 64.4659 24.7549C64.468 24.8944 64.4688 25.0355 64.4688 25.1777C64.4688 33.575 62.0381 39.4297 44.1534 39.4297Z" fill="#92B8AA"/>
<path d="M64.4686 25.2354C64.4686 36.079 56.5982 38.6988 44.1532 38.6988C30.8095 38.6988 23.8379 36.079 23.8379 25.2354C23.8379 17.3028 26.2683 11.772 44.1532 11.772C61.8499 11.772 64.4686 15.8473 64.4686 25.2354Z" fill="#EFFBF7"/>
<path d="M63.2664 25.2355C63.2664 34.9173 55.8617 37.2564 44.1532 37.2564C31.599 37.2564 25.0399 34.9173 25.0399 25.2355C25.0399 18.1528 27.3265 13.2146 44.1532 13.2146C60.8027 13.2146 63.2664 16.8532 63.2664 25.2355Z" fill="#2A5050"/>
<path d="M44.1531 13.2146C60.8022 13.2146 63.2664 16.8573 63.2664 25.2488C63.2664 25.3494 63.2631 25.4495 63.2615 25.5486C63.1833 17.8816 60.5437 14.5466 44.1531 14.5466C27.6062 14.5466 25.1208 19.0628 25.0428 25.5828C25.041 25.4725 25.0399 25.361 25.0399 25.2488C25.0399 18.1582 27.3269 13.2146 44.1531 13.2146Z" fill="#152828"/>
<path d="M44.1531 37.218C27.5041 37.218 25.0399 33.5753 25.0399 25.1838C25.0399 25.0832 25.0431 24.9831 25.0447 24.884C25.1229 32.551 27.7626 35.886 44.1531 35.886C60.7001 35.886 63.1854 31.3698 63.2635 24.8499C63.2652 24.9601 63.2664 25.0716 63.2664 25.1838C63.2664 32.2744 60.9794 37.218 44.1531 37.218Z" fill="#468586"/>
<g filter="url(#filter0_f_244_3759)">
<path d="M37.7518 29.1175C37.6411 29.1471 37.5245 29.1571 37.4022 29.1473C37.2799 29.1374 37.1649 29.1014 37.0573 29.0394L36.1337 28.5633C34.9931 27.973 33.9546 27.3712 33.0183 26.7578C32.082 26.1444 31.4905 25.3771 31.2436 24.4557C31.047 23.722 31.1298 23.0414 31.492 22.4139C31.8543 21.7865 32.4023 21.3745 33.136 21.1779C33.5529 21.0662 33.9905 21.052 34.4487 21.1353C34.9069 21.2186 35.3542 21.4333 35.7908 21.7795C35.9959 21.2614 36.2759 20.8517 36.6311 20.5505C36.9863 20.2493 37.3723 20.0428 37.7892 19.9311C38.523 19.7345 39.2036 19.8173 39.831 20.1795C40.4584 20.5418 40.8704 21.0898 41.067 21.8235C41.3166 22.7549 41.1844 23.7265 40.6705 24.7383C40.1566 25.7502 39.5581 26.7831 38.875 27.8372L38.319 28.7013C38.2569 28.8088 38.1745 28.8977 38.0719 28.9678C37.9691 29.0379 37.8624 29.0878 37.7518 29.1175Z" fill="#EFC9F3"/>
<path d="M50.3186 29.1147C50.2079 29.085 50.102 29.0354 50.0009 28.9657C49.8999 28.896 49.8184 28.8073 49.7562 28.6998L49.1944 27.8257C48.5017 26.7442 47.9032 25.7038 47.3991 24.7044C46.895 23.7051 46.7663 22.7447 47.0132 21.8234C47.2098 21.0897 47.6218 20.5416 48.2492 20.1793C48.8766 19.8171 49.5572 19.7344 50.291 19.931C50.7079 20.0427 51.0939 20.2491 51.4491 20.5504C51.8043 20.8516 52.0843 21.2612 52.2894 21.7793C52.726 21.4331 53.1733 21.2184 53.6315 21.1351C54.0897 21.0519 54.5273 21.0661 54.9442 21.1778C55.6779 21.3744 56.2259 21.7864 56.5882 22.4138C56.9504 23.0412 57.0332 23.7218 56.8366 24.4556C56.5871 25.3869 55.9868 26.1622 55.0358 26.7816C54.0848 27.4009 53.05 27.9962 51.9315 28.5675L51.0179 29.0379C50.9103 29.0999 50.7946 29.1357 50.6706 29.1451C50.5466 29.1545 50.4292 29.1443 50.3186 29.1147Z" fill="#EFC9F3"/>
</g>
<path d="M50.3186 29.1147C50.2079 29.085 50.102 29.0354 50.0009 28.9657C49.8999 28.896 49.8184 28.8073 49.7562 28.6998L49.1944 27.8257C48.5017 26.7442 47.9032 25.7038 47.3991 24.7044C46.895 23.7051 46.7663 22.7447 47.0132 21.8234C47.2098 21.0897 47.6218 20.5416 48.2492 20.1793C48.8766 19.8171 49.5572 19.7344 50.291 19.931C50.7079 20.0427 51.0939 20.2491 51.4491 20.5504C51.8043 20.8516 52.0843 21.2612 52.2894 21.7793C52.726 21.4331 53.1733 21.2184 53.6315 21.1351C54.0897 21.0519 54.5273 21.0661 54.9442 21.1778C55.6779 21.3744 56.2259 21.7864 56.5882 22.4138C56.9504 23.0412 57.0332 23.7218 56.8366 24.4556C56.5871 25.3869 55.9868 26.1622 55.0358 26.7816C54.0848 27.4009 53.05 27.9962 51.9315 28.5675L51.0179 29.0379C50.9103 29.0999 50.7946 29.1357 50.6706 29.1451C50.5466 29.1545 50.4292 29.1443 50.3186 29.1147Z" fill="#EFC9F3"/>
<path d="M37.7518 29.1175C37.6411 29.1471 37.5245 29.1571 37.4022 29.1473C37.2799 29.1374 37.1649 29.1014 37.0573 29.0394L36.1337 28.5633C34.9931 27.973 33.9546 27.3712 33.0183 26.7578C32.082 26.1444 31.4905 25.3771 31.2436 24.4557C31.047 23.722 31.1298 23.0414 31.492 22.4139C31.8543 21.7865 32.4023 21.3745 33.136 21.1779C33.5529 21.0662 33.9905 21.052 34.4487 21.1353C34.9069 21.2186 35.3542 21.4333 35.7908 21.7795C35.9959 21.2614 36.2759 20.8517 36.6311 20.5505C36.9863 20.2493 37.3723 20.0428 37.7892 19.9311C38.523 19.7345 39.2036 19.8173 39.831 20.1795C40.4584 20.5418 40.8704 21.0898 41.067 21.8235C41.3166 22.7549 41.1844 23.7265 40.6705 24.7383C40.1566 25.7502 39.5581 26.7831 38.875 27.8372L38.319 28.7013C38.2569 28.8088 38.1745 28.8977 38.0719 28.9678C37.9691 29.0379 37.8624 29.0878 37.7518 29.1175Z" fill="#EFC9F3"/>
<ellipse cx="44" cy="97.1195" rx="13.803" ry="3.00065" fill="#607C7F" fill-opacity="0.2"/>
<defs>
<filter id="filter0_f_244_3759" x="27.7744" y="16.4618" width="32.5313" height="16.0545" filterUnits="userSpaceOnUse" color-interpolation-filters="sRGB">
<feFlood flood-opacity="0" result="BackgroundImageFix"/>
<feBlend mode="normal" in="SourceGraphic" in2="BackgroundImageFix" result="shape"/>
<feGaussianBlur stdDeviation="1.68269" result="effect1_foregroundBlur_244_3759"/>
</filter>
</defs>
</svg>
