<svg width="88" height="101" viewBox="0 0 88 101" fill="none" xmlns="http://www.w3.org/2000/svg">
<path d="M33.7718 75.8953C33.7718 73.5167 54.2254 73.5167 54.2254 75.8953C54.2254 84.1559 47.6012 87.8273 43.9986 87.8273C40.396 87.8273 33.7717 84.3853 33.7718 75.8953Z" fill="#BAD3CA"/>
<path d="M33.5312 71.2239H54.466L53.6614 75.2568C53.6614 75.2568 50.6159 80.6085 43.9986 80.6085C37.3812 80.6085 34.3358 75.2568 34.3358 75.2568L33.5312 71.2239Z" fill="#152828"/>
<path d="M33.8922 73.0288C36.8044 77.8895 50.5608 78.4671 54.1052 73.0288L53.5758 75.6757C53.5758 75.6757 50.6908 80.9824 44.0735 80.9824C37.4562 80.9824 34.4107 75.6308 34.4107 75.6308L33.8922 73.0288Z" fill="#2A5050"/>
<path d="M34.3014 75.0747C39.9562 81.4514 47.9692 81.8124 53.6986 75.0747L53.5759 75.6763C53.5759 75.6763 50.6454 81.1387 43.9533 80.9943C37.2611 80.8498 34.4097 75.6282 34.4097 75.6282L34.3014 75.0747Z" fill="#468586"/>
<path d="M29.8014 47.5701L34.883 45.9276C35.4565 45.7422 35.9745 45.4161 36.3897 44.9791L36.9 44.4419H43.9986H50.9864L51.6411 45.0702C52.0354 45.4485 52.5103 45.7324 53.0302 45.9004L58.1958 47.5701C58.1958 47.5701 65.7756 75.7238 43.9986 75.7238C22.2216 75.7238 29.8014 47.5701 29.8014 47.5701Z" fill="#D2E3DD"/>
<path d="M37.6681 42.0354H50.1809L51.3841 45.6449C51.3841 45.6449 51.3841 49.2543 43.9245 49.2543C36.465 49.2543 36.465 45.6449 36.465 45.6449L37.6681 42.0354Z" fill="#2A5050"/>
<path d="M36.5853 45.2842C36.5853 45.2842 37.6681 48.4124 43.9245 48.4124C50.3012 48.2921 51.2638 45.2842 51.2638 45.2842L51.3841 45.6451C51.3841 45.6451 51.3841 49.2546 43.9245 49.2546C36.465 49.2546 36.465 45.6451 36.465 45.6451L36.5853 45.2842Z" fill="#468586"/>
<path d="M37.6681 42.0354H50.1809L50.9822 44.4417C47.8949 45.6449 40.315 45.5245 36.8668 44.4417L37.6681 42.0354Z" fill="#152828"/>
<path d="M63.2368 56.4502L56.572 55.957L55.5659 69.5527L62.2307 70.0459L63.2368 56.4502Z" fill="#2A5050"/>
<path d="M63.2368 56.4502L56.572 55.957L56.2915 59.709C57.5935 62.267 60.8305 65.0848 62.6084 64.942L63.2368 56.4502Z" fill="#152828"/>
<path d="M62.2841 70.3708L62.3709 68.1654C60.6462 67.7662 58.0045 68.4125 56.4835 66.3071C56.2986 66.0512 56.0767 65.9554 55.8307 65.9949L55.6663 68.3563L62.2841 70.3708Z" fill="#468586"/>
<path d="M63.3991 69.763C62.2787 67.5988 58.1774 69.7777 56.1223 66.933C54.0672 64.0883 47.4464 81.0315 53.8581 83.5251C60.2698 86.0187 64.5195 71.9273 63.3991 69.763Z" fill="#BAD3CA"/>
<path d="M57.4187 83.8322C58.114 82.2526 57.6321 80.3912 56.2886 79.3078C53.9083 77.3885 50.5763 80.0244 51.8962 82.7825L52.0332 83.0687L51.2747 85.8265L54.9219 87.9322C56.1546 86.4568 56.7972 85.2442 57.4187 83.8322Z" fill="#2A5050"/>
<path d="M57.6455 83.117C57.9345 81.8944 57.632 80.3917 56.2884 79.3083C55.0568 78.3153 53.502 78.5016 52.6055 79.3735C55.0724 78.7136 57.4339 80.3549 57.6455 83.117Z" fill="#152828"/>
<ellipse cx="1.74558" cy="3.41918" rx="1.74558" ry="3.41918" transform="matrix(-0.707107 -0.707107 -0.707107 0.707107 54.3916 80.8879)" fill="#D2E3DD"/>
<path d="M51.643 87.8184C49.6607 88.2717 48.8437 89.274 49.2701 90.0125C49.6965 90.751 51.6921 90.7461 53.1386 89.911C54.5852 89.0758 55.3479 87.6543 54.9216 86.9158C54.4952 86.1773 52.8137 85.7906 51.643 87.8184Z" fill="#D2E3DD"/>
<path d="M54.1869 86.3843L49.2919 89.3501C49.172 89.494 49.2616 89.8219 49.2616 89.8219C52.4507 89.7756 54.0164 88.2228 54.1869 86.3843Z" fill="#AECAC0"/>
<path d="M50.4344 86.3258C48.1933 86.8382 47.2697 87.9715 47.7517 88.8064C48.2338 89.6413 50.4899 89.6357 52.1253 88.6915C53.7607 87.7473 54.623 86.1403 54.141 85.3054C53.6589 84.4705 51.758 84.0333 50.4344 86.3258Z" fill="#D2E3DD"/>
<path d="M57.176 47.6558C49.1314 50.5684 59.2857 65.1519 63.0209 63.7995C66.7562 62.4471 65.2206 44.7433 57.176 47.6558Z" fill="#BAD3CA"/>
<rect x="29.7003" y="58.0718" width="6.68301" height="13.6328" transform="rotate(-49.0059 29.7003 58.0718)" fill="#2A5050"/>
<path d="M34.0841 53.027L44.3807 61.953L40.8695 66.0019L40.1806 67.2817L38.5656 65.7772L38.566 65.7766L29.7002 58.0712L34.0841 53.027Z" fill="#2A5050"/>
<path d="M36.3208 63.8256C37.1464 61.1278 41.3002 62.1673 42.4981 60.3366L43.1112 60.8368L43.3528 64.2649L36.8106 64.2649L36.3208 63.8256Z" fill="#468586"/>
<path d="M59.0303 62.6573L56.6684 60.3374C52.0803 62.7414 50.884 66.8361 54.3685 69.4602C57.279 71.1571 59.4323 70.4804 61.9031 69.4C62.6822 66.5145 62.0343 65.9543 60.5601 62.7914L59.0303 62.6573Z" fill="#2A5050"/>
<path d="M54.263 69.6018L53.1793 63.3445C53.42 62.8632 53.6418 62.6791 54.0224 62.2617C53.8171 64.6035 56.6613 68.044 55.7069 70.0831L54.263 69.6018Z" fill="#468586"/>
<path d="M62.4207 66.8194C64.0392 65.5884 65.3322 65.6038 65.6258 66.4045C65.9193 67.2051 64.6364 68.7337 63.0682 69.3087C61.4999 69.8837 59.9199 69.558 59.6264 68.7573C59.3329 67.9567 60.1138 66.4182 62.4207 66.8194Z" fill="#D2E3DD"/>
<path d="M60.0119 67.4161L64.8514 65.8712C65.092 65.8374 65.313 66.0058 65.313 66.0058C63.4635 68.3396 61.4442 68.4959 60.0119 67.4161Z" fill="#AECAC0"/>
<path d="M62.2492 64.9019C63.8677 63.6709 65.1607 63.6864 65.4543 64.487C65.7478 65.2876 64.4649 66.8162 62.8967 67.3912C61.3284 67.9662 59.7484 67.6405 59.4549 66.8399C59.1613 66.0392 59.9423 64.5008 62.2492 64.9019Z" fill="#D2E3DD"/>
<path d="M59.5805 65.7658L64.732 63.9465C65.0929 63.9465 65.2939 64.2188 65.2939 64.2188C63.2525 66.6229 61.0863 66.8187 59.5805 65.7658Z" fill="#AECAC0"/>
<path d="M61.8768 62.7769C63.7066 61.3852 65.1684 61.4027 65.5003 62.3078C65.8322 63.213 64.3817 64.9411 62.6088 65.5912C60.8358 66.2412 59.0496 65.873 58.7177 64.9679C58.3858 64.0627 59.2688 62.3234 61.8768 62.7769Z" fill="#D2E3DD"/>
<ellipse cx="1.74558" cy="3.41918" rx="1.74558" ry="3.41918" transform="matrix(-0.422458 -0.906382 -0.906382 0.422458 61.9666 61.6079)" fill="#D2E3DD"/>
<path d="M36.7333 64.2195C37.5069 61.2676 41.8653 62.9118 42.7947 60.5775C48.4137 59.8622 53.3956 62.984 53.3956 62.984C53.14 65.8997 57.7546 69.6861 53.7168 71.6543C47.6106 74.1417 35.6004 68.5421 36.7333 64.2195Z" fill="#BAD3CA"/>
<path d="M29.6998 58.0715L33.0983 61.0247C35.3647 62.0813 37.4591 62.4148 38.484 61.5588C39.3207 60.8601 39.5052 59.3185 39.1989 57.4602L34.0836 53.0276L29.6998 58.0715Z" fill="#152828"/>
<path d="M26.4708 48.4749C32.6549 42.5626 41.2068 58.1399 38.3354 60.8851C35.464 63.6303 20.2867 54.3872 26.4708 48.4749Z" fill="#BAD3CA"/>
<path d="M73.9569 23.8224C73.9569 19.8355 70.7249 16.6035 66.738 16.6035V33.207C70.7249 33.207 73.9569 29.975 73.9569 25.9881V23.8224Z" fill="#2A5050"/>
<path d="M14.0399 23.8224C14.0399 19.8355 17.2719 16.6035 21.2588 16.6035V33.207C17.2719 33.207 14.0399 29.975 14.0399 25.9881V23.8224Z" fill="#2A5050"/>
<path d="M69.1442 22.0179C69.1442 39.7513 57.886 44.0356 43.9983 44.0356C30.1106 44.0356 18.8524 39.7513 18.8524 22.0179C18.8524 9.04514 27.7043 0.000244141 43.9983 0.000244141C57.886 0.000244141 69.1442 6.66485 69.1442 22.0179Z" fill="#BAD3CA"/>
<path d="M44.1534 11.0029C61.8498 11.0029 64.4688 15.3169 64.4688 25.2549C64.4688 25.3743 64.4656 25.4928 64.4639 25.6104C64.3809 16.5301 61.5753 12.5801 44.1534 12.5801C26.5448 12.5801 23.9179 17.9415 23.8409 25.6777C23.8387 25.5382 23.838 25.3971 23.838 25.2549C23.838 16.8576 26.2687 11.0029 44.1534 11.0029Z" fill="#CEE6DD"/>
<path d="M44.1534 39.4297C26.457 39.4297 23.838 35.1157 23.838 25.1777C23.838 25.0583 23.8411 24.9398 23.8428 24.8223C23.9258 33.9025 26.7315 37.8525 44.1534 37.8525C61.762 37.8525 64.3889 32.4911 64.4659 24.7549C64.468 24.8944 64.4688 25.0355 64.4688 25.1777C64.4688 33.575 62.0381 39.4297 44.1534 39.4297Z" fill="#92B8AA"/>
<path d="M64.4686 25.2354C64.4686 36.079 56.5982 38.6988 44.1532 38.6988C30.8095 38.6988 23.8379 36.079 23.8379 25.2354C23.8379 17.3028 26.2683 11.772 44.1532 11.772C61.8499 11.772 64.4686 15.8473 64.4686 25.2354Z" fill="#EFFBF7"/>
<path d="M63.2664 25.2355C63.2664 34.9173 55.8618 37.2564 44.1532 37.2564C31.599 37.2564 25.0399 34.9173 25.0399 25.2355C25.0399 18.1528 27.3265 13.2146 44.1532 13.2146C60.8027 13.2146 63.2664 16.8532 63.2664 25.2355Z" fill="#2A5050"/>
<path d="M44.1531 13.2146C60.8022 13.2146 63.2664 16.8573 63.2664 25.2488C63.2664 25.3494 63.2631 25.4495 63.2615 25.5486C63.1833 17.8816 60.5437 14.5466 44.1531 14.5466C27.6062 14.5466 25.1208 19.0628 25.0428 25.5828C25.041 25.4725 25.0399 25.361 25.0399 25.2488C25.0399 18.1582 27.3269 13.2146 44.1531 13.2146Z" fill="#152828"/>
<path d="M44.1531 37.218C27.5041 37.218 25.0399 33.5753 25.0399 25.1838C25.0399 25.0832 25.0431 24.9831 25.0447 24.884C25.1229 32.551 27.7626 35.886 44.1531 35.886C60.7001 35.886 63.1854 31.3698 63.2635 24.8499C63.2652 24.9601 63.2664 25.0716 63.2664 25.1838C63.2664 32.2744 60.9794 37.218 44.1531 37.218Z" fill="#468586"/>
<g filter="url(#filter0_f_383_3589)">
<path d="M40.7098 21.356C40.8978 21.544 40.8978 21.8488 40.7098 22.0367L38.2515 24.4949C38.0635 24.6828 38.0635 24.9876 38.2515 25.1756L40.7097 27.6339C40.8976 27.8219 40.8976 28.1266 40.7097 28.3146L39.596 29.4284C39.408 29.6164 39.1033 29.6164 38.9153 29.4284L36.457 26.9701C36.269 26.7821 35.9642 26.7821 35.7763 26.9701L33.3181 29.4284C33.1302 29.6164 32.8254 29.6164 32.6374 29.4284L31.5236 28.3146C31.3356 28.1266 31.3356 27.8219 31.5236 27.6339L33.9818 25.1756C34.1697 24.9876 34.1697 24.6828 33.9818 24.4949L31.5236 22.0367C31.3356 21.8488 31.3356 21.544 31.5236 21.356L32.6374 20.2422C32.8254 20.0542 33.1302 20.0542 33.3181 20.2422L35.7763 22.7004C35.9642 22.8883 36.269 22.8883 36.457 22.7004L38.9153 20.2422C39.1033 20.0542 39.408 20.0542 39.596 20.2422L40.7098 21.356Z" fill="#F1F8F4"/>
<path d="M58.5186 21.356C58.7065 21.544 58.7065 21.8488 58.5186 22.0367L56.0602 24.4949C55.8723 24.6828 55.8723 24.9876 56.0602 25.1756L58.5184 27.6339C58.7064 27.8219 58.7064 28.1266 58.5184 28.3146L57.4047 29.4284C57.2168 29.6164 56.912 29.6164 56.724 29.4284L54.2657 26.9701C54.0777 26.7821 53.773 26.7821 53.585 26.9701L51.1269 29.4284C50.9389 29.6164 50.6342 29.6164 50.4462 29.4284L49.3323 28.3146C49.1444 28.1266 49.1444 27.8219 49.3323 27.6339L51.7905 25.1756C51.9785 24.9876 51.9785 24.6828 51.7905 24.4949L49.3323 22.0367C49.1444 21.8488 49.1444 21.544 49.3323 21.356L50.4462 20.2422C50.6342 20.0542 50.9389 20.0542 51.1269 20.2422L53.585 22.7004C53.773 22.8883 54.0777 22.8883 54.2657 22.7004L56.7241 20.2422C56.912 20.0542 57.2168 20.0542 57.4047 20.2422L58.5186 21.356Z" fill="#F1F8F4"/>
</g>
<path d="M40.7098 21.356C40.8977 21.544 40.8977 21.8488 40.7098 22.0367L38.2514 24.4949C38.0635 24.6828 38.0635 24.9876 38.2514 25.1756L40.7096 27.6339C40.8976 27.8219 40.8976 28.1266 40.7096 28.3146L39.5959 29.4284C39.408 29.6164 39.1032 29.6164 38.9152 29.4284L36.4569 26.9701C36.2689 26.7821 35.9642 26.7821 35.7762 26.9701L33.3181 29.4284C33.1301 29.6164 32.8253 29.6164 32.6374 29.4284L31.5235 28.3146C31.3356 28.1266 31.3356 27.8219 31.5235 27.6339L33.9817 25.1756C34.1697 24.9876 34.1697 24.6828 33.9817 24.4949L31.5235 22.0367C31.3356 21.8488 31.3356 21.544 31.5235 21.356L32.6374 20.2422C32.8254 20.0542 33.1301 20.0542 33.3181 20.2422L35.7762 22.7004C35.9642 22.8883 36.2689 22.8883 36.4569 22.7004L38.9152 20.2422C39.1032 20.0542 39.408 20.0542 39.5959 20.2422L40.7098 21.356Z" fill="#F1F8F4"/>
<path d="M58.5185 21.356C58.7065 21.544 58.7065 21.8488 58.5185 22.0367L56.0602 24.4949C55.8722 24.6828 55.8722 24.9876 56.0602 25.1756L58.5184 27.6339C58.7063 27.8219 58.7063 28.1266 58.5184 28.3146L57.4047 29.4284C57.2167 29.6164 56.912 29.6164 56.724 29.4284L54.2657 26.9701C54.0777 26.7821 53.773 26.7821 53.585 26.9701L51.1268 29.4284C50.9389 29.6164 50.6341 29.6164 50.4462 29.4284L49.3323 28.3146C49.1443 28.1266 49.1443 27.8219 49.3323 27.6339L51.7905 25.1756C51.9784 24.9876 51.9784 24.6828 51.7905 24.4949L49.3323 22.0367C49.1443 21.8488 49.1443 21.544 49.3323 21.356L50.4462 20.2422C50.6341 20.0542 50.9389 20.0542 51.1268 20.2422L53.585 22.7004C53.773 22.8883 54.0777 22.8883 54.2657 22.7004L56.724 20.2422C56.912 20.0542 57.2167 20.0542 57.4047 20.2422L58.5185 21.356Z" fill="#F1F8F4"/>
<ellipse cx="44" cy="97.1198" rx="13.803" ry="3.00065" fill="#607C7F" fill-opacity="0.2"/>
<defs>
<filter id="filter0_f_383_3589" x="28.0134" y="16.7321" width="34.0153" height="16.2064" filterUnits="userSpaceOnUse" color-interpolation-filters="sRGB">
<feFlood flood-opacity="0" result="BackgroundImageFix"/>
<feBlend mode="normal" in="SourceGraphic" in2="BackgroundImageFix" result="shape"/>
<feGaussianBlur stdDeviation="1.6846" result="effect1_foregroundBlur_383_3589"/>
</filter>
</defs>
</svg>
