<svg width="88" height="101" viewBox="0 0 88 101" fill="none" xmlns="http://www.w3.org/2000/svg">
<path d="M33.7718 75.8952C33.7718 73.5166 54.2254 73.5166 54.2254 75.8952C54.2254 84.1558 47.6012 87.8271 43.9986 87.8271C40.396 87.8271 33.7717 84.3852 33.7718 75.8952Z" fill="#BAD3CA"/>
<path d="M33.5312 71.2239H54.466L53.6614 75.2568C53.6614 75.2568 50.6159 80.6085 43.9986 80.6085C37.3812 80.6085 34.3358 75.2568 34.3358 75.2568L33.5312 71.2239Z" fill="#152828"/>
<path d="M33.8922 73.0289C36.8044 77.8897 50.5608 78.4672 54.1052 73.0289L53.5758 75.6759C53.5758 75.6759 50.6908 80.9825 44.0735 80.9825C37.4562 80.9825 34.4107 75.6309 34.4107 75.6309L33.8922 73.0289Z" fill="#2A5050"/>
<path d="M34.3014 75.0747C39.9562 81.4514 47.9692 81.8124 53.6986 75.0747L53.5759 75.6763C53.5759 75.6763 50.6454 81.1387 43.9533 80.9943C37.2611 80.8498 34.4097 75.6282 34.4097 75.6282L34.3014 75.0747Z" fill="#468586"/>
<path d="M29.8014 47.5701L34.883 45.9276C35.4565 45.7422 35.9745 45.4161 36.3897 44.9791L36.9 44.4419H43.9986H50.9864L51.6411 45.0702C52.0354 45.4485 52.5103 45.7324 53.0302 45.9004L58.1958 47.5701C58.1958 47.5701 65.7756 75.7238 43.9986 75.7238C22.2216 75.7238 29.8014 47.5701 29.8014 47.5701Z" fill="#D2E3DD"/>
<path d="M37.6681 42.0354H50.1809L51.3841 45.6449C51.3841 45.6449 51.3841 49.2543 43.9245 49.2543C36.465 49.2543 36.465 45.6449 36.465 45.6449L37.6681 42.0354Z" fill="#2A5050"/>
<path d="M36.5853 45.2842C36.5853 45.2842 37.6681 48.4124 43.9245 48.4124C50.3012 48.2921 51.2638 45.2842 51.2638 45.2842L51.3841 45.6451C51.3841 45.6451 51.3841 49.2546 43.9245 49.2546C36.465 49.2546 36.465 45.6451 36.465 45.6451L36.5853 45.2842Z" fill="#468586"/>
<path d="M37.6681 42.0354H50.1809L50.9822 44.4417C47.8949 45.6449 40.315 45.5245 36.8668 44.4417L37.6681 42.0354Z" fill="#152828"/>
<rect x="25.3133" y="52.3668" width="6.66646" height="13.5991" transform="rotate(25.7677 25.3133 52.3668)" fill="#2A5050"/>
<path d="M25.3133 52.3668L31.3169 55.2649L29.63 58.7484C27.2294 60.3088 23.0855 61.0263 21.6208 60.0162L25.3133 52.3668Z" fill="#152828"/>
<path d="M19.1939 64.8671L20.2188 62.9186C21.9078 63.4339 23.8676 65.3098 26.2316 64.2497C26.519 64.1208 26.7585 64.1487 26.9513 64.3056L25.9155 66.4275L19.1939 64.8671Z" fill="#468586"/>
<path d="M18.5336 63.784C20.5809 62.4731 23.0372 66.401 26.2314 64.9685C29.4256 63.5361 26.6945 81.4751 19.9119 80.4314C13.1292 79.3877 16.4862 65.0949 18.5336 63.784Z" fill="#BAD3CA"/>
<path d="M16.6824 78.9207C16.8697 77.2092 18.2143 75.8416 19.9153 75.5758C22.9288 75.1049 24.4926 79.0438 21.9768 80.7682L21.7156 80.9471L20.9955 83.7078H16.7944C16.4655 81.8185 16.5151 80.4504 16.6824 78.9207Z" fill="#2A5050"/>
<path d="M16.8433 78.1891C17.2034 76.9888 18.2142 75.8416 19.9152 75.5758C21.4744 75.3322 22.7247 76.2686 23.0643 77.4689C21.2624 75.6685 18.4037 75.9085 16.8433 78.1891Z" fill="#152828"/>
<ellipse cx="23.3316" cy="80.7318" rx="1.74126" ry="3.41071" transform="rotate(-15 23.3316 80.7318)" fill="#D2E3DD"/>
<path d="M19.6841 85.2456C21.1705 86.6258 21.3763 87.8992 20.6396 88.3245C19.903 88.7498 18.1814 87.7502 17.3483 86.3073C16.5153 84.8643 16.5653 83.2559 17.302 82.8306C18.0386 82.4053 19.6841 82.9099 19.6841 85.2456Z" fill="#F2F2F3"/>
<path d="M19.6841 85.2456C21.1705 86.6258 21.3763 87.8992 20.6396 88.3245C19.903 88.7498 18.1814 87.7502 17.3483 86.3073C16.5153 84.8643 16.5653 83.2559 17.302 82.8306C18.0386 82.4053 19.6841 82.9099 19.6841 85.2456Z" fill="#D2E3DD"/>
<path d="M18.2024 82.7384L20.9519 87.7419C20.9837 87.926 20.7427 88.1645 20.7427 88.1645C18.0109 86.534 17.4328 84.4117 18.2024 82.7384Z" fill="#AECAC0"/>
<path d="M21.4729 84.5585C23.1533 86.1189 23.386 87.5586 22.5531 88.0394C21.7203 88.5202 19.774 87.3902 18.8322 85.7588C17.8903 84.1275 17.9469 82.3091 18.7798 81.8283C19.6126 81.3474 21.4729 81.9179 21.4729 84.5585Z" fill="#D2E3DD"/>
<path d="M34.7796 48.6787C39.8831 55.5455 23.369 62.1085 20.9994 58.9202C18.6298 55.7318 29.6761 41.8119 34.7796 48.6787Z" fill="#BAD3CA"/>
<rect width="6.66646" height="13.5991" transform="matrix(-0.900564 0.434724 0.434724 0.900564 62.6867 52.619)" fill="#2A5050"/>
<path d="M62.6867 52.619L56.6831 55.5171L58.37 59.0006C60.7706 60.5609 64.9145 61.2785 66.3792 60.2684L62.6867 52.619Z" fill="#152828"/>
<path d="M68.8061 65.1193L67.7812 63.1708C66.0922 63.6861 64.1324 65.562 61.7684 64.5019C61.481 64.373 61.2415 64.4009 61.0487 64.5578L62.0845 66.6797L68.8061 65.1193Z" fill="#468586"/>
<path d="M69.4664 64.0362C67.4191 62.7253 64.9628 66.6532 61.7686 65.2207C58.5744 63.7883 61.3055 81.7273 68.0881 80.6836C74.8708 79.6399 71.5138 65.347 69.4664 64.0362Z" fill="#BAD3CA"/>
<path d="M71.3176 79.1729C71.1303 77.4614 69.7857 76.0937 68.0847 75.828C65.0712 75.3571 63.5074 79.296 66.0232 81.0204L66.2844 81.1993L67.0045 83.96H71.2056C71.5345 82.0706 71.4849 80.7026 71.3176 79.1729Z" fill="#2A5050"/>
<path d="M71.1567 78.4413C70.7966 77.241 69.7858 76.0938 68.0848 75.828C66.5256 75.5844 65.2753 76.5208 64.9357 77.7211C66.7376 75.9207 69.5963 76.1607 71.1567 78.4413Z" fill="#152828"/>
<ellipse cx="1.74126" cy="3.41071" rx="1.74126" ry="3.41071" transform="matrix(-0.965926 -0.258819 -0.258819 0.965926 67.2331 78.1401)" fill="#D2E3DD"/>
<path d="M68.3159 85.4978C66.8295 86.878 66.6237 88.1514 67.3604 88.5767C68.097 89.002 69.8186 88.0024 70.6517 86.5595C71.4847 85.1165 71.4347 83.5081 70.698 83.0828C69.9614 82.6575 68.3159 83.162 68.3159 85.4978Z" fill="#F2F2F3"/>
<path d="M68.3159 85.4978C66.8295 86.878 66.6237 88.1514 67.3604 88.5767C68.097 89.002 69.8186 88.0024 70.6517 86.5595C71.4847 85.1165 71.4347 83.5081 70.698 83.0828C69.9614 82.6575 68.3159 83.162 68.3159 85.4978Z" fill="#D2E3DD"/>
<path d="M69.7976 82.9906L67.0481 87.9941C67.0163 88.1782 67.2573 88.4167 67.2573 88.4167C69.9891 86.7862 70.5672 84.6639 69.7976 82.9906Z" fill="#AECAC0"/>
<path d="M66.5271 84.8107C64.8467 86.3711 64.614 87.8108 65.4469 88.2916C66.2797 88.7724 68.226 87.6424 69.1678 86.011C70.1097 84.3797 70.0531 82.5613 69.2202 82.0805C68.3874 81.5996 66.5271 82.1701 66.5271 84.8107Z" fill="#D2E3DD"/>
<path d="M52.9588 48.7296C47.8553 55.5964 64.3694 62.1594 66.739 58.9711C69.1086 55.7827 58.0623 41.8628 52.9588 48.7296Z" fill="#BAD3CA"/>
<path d="M73.9569 23.8224C73.9569 19.8355 70.7249 16.6035 66.738 16.6035V33.207C70.7249 33.207 73.9569 29.975 73.9569 25.9881V23.8224Z" fill="#2A5050"/>
<path d="M14.0399 23.8224C14.0399 19.8355 17.2719 16.6035 21.2588 16.6035V33.207C17.2719 33.207 14.0399 29.975 14.0399 25.9881V23.8224Z" fill="#2A5050"/>
<path d="M69.1442 22.0179C69.1442 39.7513 57.886 44.0356 43.9983 44.0356C30.1106 44.0356 18.8524 39.7513 18.8524 22.0179C18.8524 9.04514 27.7043 0.000244141 43.9983 0.000244141C57.886 0.000244141 69.1442 6.66485 69.1442 22.0179Z" fill="#BAD3CA"/>
<path d="M44.1534 11.0029C61.8498 11.0029 64.4688 15.3169 64.4688 25.2549C64.4688 25.3743 64.4656 25.4928 64.4639 25.6104C64.3809 16.5301 61.5753 12.5801 44.1534 12.5801C26.5448 12.5801 23.9179 17.9415 23.8409 25.6777C23.8387 25.5382 23.838 25.3971 23.838 25.2549C23.838 16.8576 26.2687 11.0029 44.1534 11.0029Z" fill="#CEE6DD"/>
<path d="M44.1534 39.4297C26.457 39.4297 23.838 35.1157 23.838 25.1777C23.838 25.0583 23.8411 24.9398 23.8428 24.8223C23.9258 33.9025 26.7315 37.8525 44.1534 37.8525C61.762 37.8525 64.3889 32.4911 64.4659 24.7549C64.468 24.8944 64.4688 25.0355 64.4688 25.1777C64.4688 33.575 62.0381 39.4297 44.1534 39.4297Z" fill="#92B8AA"/>
<path d="M64.4686 25.2354C64.4686 36.079 56.5982 38.6988 44.1532 38.6988C30.8095 38.6988 23.8379 36.079 23.8379 25.2354C23.8379 17.3028 26.2683 11.772 44.1532 11.772C61.8499 11.772 64.4686 15.8473 64.4686 25.2354Z" fill="#EFFBF7"/>
<path d="M63.2664 25.2355C63.2664 34.9173 55.8618 37.2564 44.1532 37.2564C31.599 37.2564 25.0399 34.9173 25.0399 25.2355C25.0399 18.1528 27.3265 13.2146 44.1532 13.2146C60.8027 13.2146 63.2664 16.8532 63.2664 25.2355Z" fill="#2A5050"/>
<path d="M44.1531 13.2146C60.8022 13.2146 63.2664 16.8573 63.2664 25.2488C63.2664 25.3494 63.2631 25.4495 63.2615 25.5486C63.1833 17.8816 60.5437 14.5466 44.1531 14.5466C27.6062 14.5466 25.1208 19.0628 25.0428 25.5828C25.041 25.4725 25.0399 25.361 25.0399 25.2488C25.0399 18.1582 27.3269 13.2146 44.1531 13.2146Z" fill="#152828"/>
<path d="M44.1531 37.218C27.5041 37.218 25.0399 33.5753 25.0399 25.1838C25.0399 25.0832 25.0431 24.9831 25.0447 24.884C25.1229 32.551 27.7626 35.886 44.1531 35.886C60.7001 35.886 63.1854 31.3698 63.2635 24.8499C63.2652 24.9601 63.2664 25.0716 63.2664 25.1838C63.2664 32.2744 60.9794 37.218 44.1531 37.218Z" fill="#468586"/>
<g filter="url(#filter0_f_367_2883)">
<ellipse cx="35.146" cy="24.833" rx="3.125" ry="4.92788" fill="#F1F8F4"/>
<ellipse cx="52.9341" cy="24.833" rx="3.125" ry="4.92788" fill="#F1F8F4"/>
</g>
<ellipse cx="35.146" cy="24.833" rx="3.125" ry="4.92788" fill="#F1F8F4"/>
<ellipse cx="52.9341" cy="24.833" rx="3.125" ry="4.92788" fill="#F1F8F4"/>
<ellipse cx="44" cy="97.1197" rx="13.803" ry="3.00065" fill="#607C7F" fill-opacity="0.2"/>
<defs>
<filter id="filter0_f_367_2883" x="28.6556" y="16.5398" width="30.7689" height="16.5865" filterUnits="userSpaceOnUse" color-interpolation-filters="sRGB">
<feFlood flood-opacity="0" result="BackgroundImageFix"/>
<feBlend mode="normal" in="SourceGraphic" in2="BackgroundImageFix" result="shape"/>
<feGaussianBlur stdDeviation="1.68269" result="effect1_foregroundBlur_367_2883"/>
</filter>
</defs>
</svg>
