<svg width="88" height="101" viewBox="0 0 88 101" fill="none" xmlns="http://www.w3.org/2000/svg">
<path d="M33.7718 75.8953C33.7718 73.5167 54.2254 73.5167 54.2254 75.8953C54.2254 84.1559 47.6012 87.8273 43.9986 87.8273C40.396 87.8273 33.7717 84.3853 33.7718 75.8953Z" fill="#BAD3CA"/>
<path d="M33.5312 71.2239H54.466L53.6614 75.2568C53.6614 75.2568 50.6159 80.6085 43.9986 80.6085C37.3812 80.6085 34.3358 75.2568 34.3358 75.2568L33.5312 71.2239Z" fill="#152828"/>
<path d="M33.8922 73.0288C36.8044 77.8895 50.5608 78.4671 54.1052 73.0288L53.5758 75.6757C53.5758 75.6757 50.6908 80.9824 44.0735 80.9824C37.4562 80.9824 34.4107 75.6308 34.4107 75.6308L33.8922 73.0288Z" fill="#2A5050"/>
<path d="M34.3014 75.0747C39.9562 81.4514 47.9692 81.8124 53.6986 75.0747L53.5759 75.6763C53.5759 75.6763 50.6454 81.1387 43.9533 80.9943C37.2611 80.8498 34.4097 75.6282 34.4097 75.6282L34.3014 75.0747Z" fill="#468586"/>
<path d="M29.8014 47.5701L34.883 45.9276C35.4565 45.7422 35.9745 45.4161 36.3897 44.9791L36.9 44.4419H43.9986H50.9864L51.6411 45.0702C52.0354 45.4485 52.5103 45.7324 53.0302 45.9004L58.1958 47.5701C58.1958 47.5701 65.7756 75.7238 43.9986 75.7238C22.2216 75.7238 29.8014 47.5701 29.8014 47.5701Z" fill="#D2E3DD"/>
<path d="M37.6681 42.0354H50.1809L51.3841 45.6449C51.3841 45.6449 51.3841 49.2543 43.9245 49.2543C36.465 49.2543 36.465 45.6449 36.465 45.6449L37.6681 42.0354Z" fill="#2A5050"/>
<path d="M36.5853 45.2842C36.5853 45.2842 37.6681 48.4124 43.9245 48.4124C50.3012 48.2921 51.2638 45.2842 51.2638 45.2842L51.3841 45.6451C51.3841 45.6451 51.3841 49.2546 43.9245 49.2546C36.465 49.2546 36.465 45.6451 36.465 45.6451L36.5853 45.2842Z" fill="#468586"/>
<path d="M37.6681 42.0354H50.1809L50.9822 44.4417C47.8949 45.6449 40.315 45.5245 36.8668 44.4417L37.6681 42.0354Z" fill="#152828"/>
<path d="M29.4734 49.8491L31.8768 55.7249L17.8906 64.2457L14.5524 58.4638L29.4734 49.8491Z" fill="#2A5050"/>
<ellipse cx="5.0395" cy="10.8744" rx="5.0395" ry="10.8744" transform="matrix(-0.930944 0.365161 0.365161 0.930944 14.7957 42.3286)" fill="#BAD3CA"/>
<path d="M19.8768 55.3896C19.8411 55.8146 19.8926 56.2024 20.0487 56.5371C20.8225 58.196 24.2136 58.7585 27.7157 58.2598L31.8768 55.7246L29.4735 49.8496L19.8768 55.3896Z" fill="#152828"/>
<path d="M10.4854 40.1156C11.0094 42.2073 11.4341 43.9029 13.1296 43.417C14.8251 42.931 14.4004 41.2354 13.8764 39.1437C13.3524 37.0521 12.1686 35.574 11.2322 35.8424C10.2958 36.1108 9.96145 38.024 10.4854 40.1156Z" fill="#D2E3DD"/>
<path d="M10.137 37.7836L11.3826 43.5385C11.4595 43.7022 11.6924 43.7436 11.6924 43.7436C12.1695 40.8114 11.336 38.6312 10.137 37.7836Z" fill="#AECAC0"/>
<path d="M7.60194 40.0664C8.12591 42.158 8.55067 43.8537 10.1602 43.3923C11.7698 42.931 11.3451 41.2354 10.8211 39.1437C10.2971 37.0521 9.15174 35.563 8.2628 35.8178C7.37385 36.0726 7.07798 37.9747 7.60194 40.0664Z" fill="#D2E3DD"/>
<path d="M7.49732 38.5612L8.74298 44.3161C8.81986 44.4798 9.05279 44.5212 9.05279 44.5212C9.52985 41.589 8.69634 39.4088 7.49732 38.5612Z" fill="#AECAC0"/>
<path d="M5.22539 41.6124C5.63305 43.7335 5.96353 45.453 7.54418 45.1054C9.12483 44.7578 8.79436 43.0383 8.3867 40.9172C7.97903 38.7961 6.94088 37.2323 6.06791 37.4242C5.19494 37.6162 4.81773 39.4913 5.22539 41.6124Z" fill="#D2E3DD"/>
<path d="M14.7053 43.1652L18.1913 44.2511C17.9509 49.4201 12.9021 53.1466 9.05544 51.099C6.29056 49.1797 6.53104 47.617 5.92999 44.2511C8.21396 42.3278 10.8586 41.7227 14.3446 41.7227L14.7053 43.1652Z" fill="#2A5050"/>
<path d="M7.36395 49.5255C11.403 51.9297 14.4799 50.1746 17.3649 47.4819C15.9224 50.6555 12.0623 52.7711 9.00896 51.0882C8.17162 50.4924 7.73896 50.119 7.36395 49.5255Z" fill="#468586"/>
<path d="M14.8251 43.0494C12.7815 44.6121 12.9017 47.3769 14.8251 47.8578C18.4031 48.7523 18.5611 43.2898 18.6718 41.8473C18.7824 40.4048 18.299 39.2438 17.3495 39.0825C16.4 38.9212 15.1857 40.2846 14.8251 43.0494Z" fill="#D2E3DD"/>
<path d="M36.4594 49.3402C39.6393 57.2829 21.9966 59.4094 20.5201 55.7215C19.0437 52.0336 33.2795 41.3975 36.4594 49.3402Z" fill="#BAD3CA"/>
<path d="M58.8254 49.6621L56.422 55.5379L70.4083 64.0587L73.7465 58.2768L58.8254 49.6621Z" fill="#2A5050"/>
<ellipse cx="74.2237" cy="54.1053" rx="5.0395" ry="10.8744" transform="rotate(21.4175 74.2237 54.1053)" fill="#BAD3CA"/>
<path d="M68.422 55.2026C68.4578 55.6276 68.4062 56.0154 68.2502 56.3501C67.4764 58.0089 64.0853 58.5715 60.5832 58.0728L56.422 55.5376L58.8254 49.6626L68.422 55.2026Z" fill="#152828"/>
<path d="M77.8134 39.9286C77.2894 42.0203 76.8647 43.7159 75.1692 43.23C73.4737 42.744 73.8985 41.0484 74.4224 38.9567C74.9464 36.8651 76.1303 35.387 77.0666 35.6554C78.003 35.9238 78.3374 37.837 77.8134 39.9286Z" fill="#D2E3DD"/>
<path d="M78.1619 37.5966L76.9162 43.3515C76.8393 43.5152 76.6064 43.5566 76.6064 43.5566C76.1293 40.6244 76.9628 38.4442 78.1619 37.5966Z" fill="#AECAC0"/>
<path d="M80.6969 39.8794C80.1729 41.971 79.7482 43.6667 78.1386 43.2053C76.529 42.744 76.9538 41.0484 77.4777 38.9567C78.0017 36.8651 79.1471 35.376 80.036 35.6308C80.925 35.8855 81.2209 37.7877 80.6969 39.8794Z" fill="#D2E3DD"/>
<path d="M80.8015 38.3742L79.5559 44.1291C79.479 44.2928 79.246 44.3342 79.246 44.3342C78.769 41.4019 79.6025 39.2218 80.8015 38.3742Z" fill="#AECAC0"/>
<path d="M83.0734 41.4254C82.6658 43.5465 82.3353 45.266 80.7546 44.9184C79.174 44.5708 79.5045 42.8513 79.9121 40.7302C80.3198 38.6091 81.358 37.0453 82.2309 37.2372C83.1039 37.4292 83.4811 39.3043 83.0734 41.4254Z" fill="#D2E3DD"/>
<path d="M73.5936 42.9782L70.1075 44.0641C70.3479 49.2331 75.3967 52.9596 79.2434 50.9119C82.0083 48.9927 81.7678 47.43 82.3688 44.0641C80.0849 42.1408 77.4403 41.5356 73.9542 41.5356L73.5936 42.9782Z" fill="#2A5050"/>
<path d="M80.9349 49.3385C76.8959 51.7427 73.8189 49.9876 70.9339 47.2949C72.3764 50.4684 76.2366 52.5841 79.2899 50.9012C80.1272 50.3054 80.5599 49.9319 80.9349 49.3385Z" fill="#468586"/>
<path d="M73.4738 42.8624C75.5173 44.4251 75.3971 47.1899 73.4738 47.6708C69.8957 48.5652 69.7377 43.1028 69.6271 41.6603C69.5164 40.2178 69.9999 39.0568 70.9494 38.8955C71.8989 38.7341 73.1131 40.0976 73.4738 42.8624Z" fill="#D2E3DD"/>
<path d="M51.7207 49.2604C48.5408 57.2031 66.1835 59.3296 67.66 55.6417C69.1364 51.9537 54.9006 41.3177 51.7207 49.2604Z" fill="#BAD3CA"/>
<path d="M73.9569 23.8224C73.9569 19.8355 70.7249 16.6035 66.738 16.6035V33.207C70.7249 33.207 73.9569 29.975 73.9569 25.9881V23.8224Z" fill="#2A5050"/>
<path d="M14.0399 23.8224C14.0399 19.8355 17.2719 16.6035 21.2588 16.6035V33.207C17.2719 33.207 14.0399 29.975 14.0399 25.9881V23.8224Z" fill="#2A5050"/>
<path d="M69.1442 22.0179C69.1442 39.7513 57.886 44.0356 43.9983 44.0356C30.1106 44.0356 18.8524 39.7513 18.8524 22.0179C18.8524 9.04514 27.7043 0.000244141 43.9983 0.000244141C57.886 0.000244141 69.1442 6.66485 69.1442 22.0179Z" fill="#BAD3CA"/>
<path d="M44.1534 11.0029C61.8498 11.0029 64.4688 15.3169 64.4688 25.2549C64.4688 25.3743 64.4656 25.4928 64.4639 25.6104C64.3809 16.5301 61.5753 12.5801 44.1534 12.5801C26.5448 12.5801 23.9179 17.9415 23.8409 25.6777C23.8387 25.5382 23.838 25.3971 23.838 25.2549C23.838 16.8576 26.2687 11.0029 44.1534 11.0029Z" fill="#CEE6DD"/>
<path d="M44.1534 39.4297C26.457 39.4297 23.838 35.1157 23.838 25.1777C23.838 25.0583 23.8411 24.9398 23.8428 24.8223C23.9258 33.9025 26.7315 37.8525 44.1534 37.8525C61.762 37.8525 64.3889 32.4911 64.4659 24.7549C64.468 24.8944 64.4688 25.0355 64.4688 25.1777C64.4688 33.575 62.0381 39.4297 44.1534 39.4297Z" fill="#92B8AA"/>
<path d="M64.4686 25.2354C64.4686 36.079 56.5982 38.6988 44.1532 38.6988C30.8095 38.6988 23.8379 36.079 23.8379 25.2354C23.8379 17.3028 26.2683 11.772 44.1532 11.772C61.8499 11.772 64.4686 15.8473 64.4686 25.2354Z" fill="#EFFBF7"/>
<path d="M63.2664 25.2355C63.2664 34.9173 55.8618 37.2564 44.1532 37.2564C31.599 37.2564 25.0399 34.9173 25.0399 25.2355C25.0399 18.1528 27.3265 13.2146 44.1532 13.2146C60.8027 13.2146 63.2664 16.8532 63.2664 25.2355Z" fill="#2A5050"/>
<path d="M44.1531 13.2146C60.8022 13.2146 63.2664 16.8573 63.2664 25.2488C63.2664 25.3494 63.2631 25.4495 63.2615 25.5486C63.1833 17.8816 60.5437 14.5466 44.1531 14.5466C27.6062 14.5466 25.1208 19.0628 25.0428 25.5828C25.041 25.4725 25.0399 25.361 25.0399 25.2488C25.0399 18.1582 27.3269 13.2146 44.1531 13.2146Z" fill="#152828"/>
<path d="M44.1531 37.218C27.5041 37.218 25.0399 33.5753 25.0399 25.1838C25.0399 25.0832 25.0431 24.9831 25.0447 24.884C25.1229 32.551 27.7626 35.886 44.1531 35.886C60.7001 35.886 63.1854 31.3698 63.2635 24.8499C63.2652 24.9601 63.2664 25.0716 63.2664 25.1838C63.2664 32.2744 60.9794 37.218 44.1531 37.218Z" fill="#468586"/>
<g filter="url(#filter0_f_375_3083)">
<path d="M51.1357 27.5334L48.2506 28.3657C48.1435 28.395 48.0447 28.3929 47.9541 28.3593C47.8635 28.3258 47.7878 28.272 47.7271 28.1979C47.6662 28.1237 47.627 28.0375 47.6094 27.9394C47.5918 27.8413 47.6111 27.7431 47.6672 27.6449L49.0823 25.0013L47.3981 22.5156C47.3352 22.4224 47.3051 22.326 47.3078 22.2262C47.3104 22.1264 47.3407 22.0369 47.3987 21.9577C47.4568 21.8786 47.5256 21.8197 47.6054 21.7809C47.6851 21.7422 47.7833 21.7292 47.9001 21.742L50.8617 22.2646L52.6988 19.9024C52.7663 19.8143 52.8479 19.7577 52.9437 19.7325C53.0395 19.7073 53.1337 19.7071 53.2261 19.7319C53.3186 19.7566 53.4 19.8039 53.4704 19.8736C53.5408 19.9433 53.5832 20.0332 53.5975 20.1432L54.0074 23.1075L56.8335 24.1357C56.9411 24.183 57.0197 24.2434 57.0693 24.3168C57.119 24.3902 57.1492 24.4757 57.1599 24.5732C57.1706 24.6708 57.1521 24.7635 57.1044 24.8512C57.0568 24.9389 56.9825 25.0074 56.8815 25.0567L54.1801 26.3672L54.0838 29.3642C54.0833 29.4773 54.0509 29.572 53.9867 29.6482C53.9223 29.7243 53.8453 29.7793 53.7554 29.8132C53.6658 29.847 53.5733 29.8558 53.4781 29.8395C53.3829 29.8232 53.2963 29.7757 53.2182 29.6968L51.1357 27.5334Z" fill="#FBE5B9"/>
<path d="M36.9466 27.5336L34.8641 29.6969C34.7861 29.7758 34.6994 29.8234 34.6042 29.8396C34.509 29.8559 34.4165 29.8472 34.3269 29.8134C34.237 29.7795 34.16 29.7245 34.0956 29.6483C34.0314 29.5721 33.9991 29.4774 33.9985 29.3643L33.9022 26.3674L31.2008 25.0568C31.0998 25.0076 31.0255 24.9391 30.9779 24.8514C30.9302 24.7636 30.9117 24.671 30.9224 24.5733C30.9331 24.4758 30.9633 24.3903 31.013 24.3169C31.0626 24.2435 31.1412 24.1832 31.2488 24.1359L34.0749 23.1076L34.4848 20.1434C34.4991 20.0334 34.5415 19.9435 34.6119 19.8738C34.6823 19.804 34.7637 19.7568 34.8562 19.732C34.9486 19.7072 35.0428 19.7074 35.1386 19.7326C35.2344 19.7578 35.3161 19.8145 35.3835 19.9026L37.2206 22.2647L40.1822 21.7422C40.299 21.7294 40.3972 21.7423 40.4769 21.7811C40.5567 21.8198 40.6255 21.8787 40.6836 21.9578C40.7416 22.0371 40.772 22.1266 40.7745 22.2264C40.7772 22.3261 40.7471 22.4226 40.6842 22.5157L39 25.0014L40.4151 27.645C40.4712 27.7432 40.4905 27.8414 40.473 27.9395C40.4553 28.0376 40.4161 28.1238 40.3552 28.1981C40.2945 28.2722 40.2188 28.326 40.1282 28.3595C40.0376 28.393 39.9388 28.3951 39.8317 28.3659L36.9466 27.5336Z" fill="#FBE5B9"/>
</g>
<path d="M51.1335 27.5332L48.2484 28.3655C48.1414 28.3947 48.0425 28.3926 47.9519 28.3591C47.8614 28.3256 47.7857 28.2718 47.7249 28.1977C47.664 28.1234 47.6248 28.0372 47.6072 27.9391C47.5897 27.841 47.609 27.7429 47.6651 27.6446L49.0801 25.001L47.3959 22.5153C47.3331 22.4222 47.303 22.3257 47.3056 22.226C47.3082 22.1262 47.3385 22.0367 47.3966 21.9575C47.4546 21.8783 47.5235 21.8194 47.6032 21.7807C47.6829 21.7419 47.7812 21.729 47.898 21.7418L50.8595 22.2643L52.6967 19.9022C52.7641 19.8141 52.8457 19.7574 52.9415 19.7322C53.0374 19.707 53.1315 19.7068 53.224 19.7316C53.3164 19.7564 53.3979 19.8036 53.4683 19.8734C53.5387 19.9431 53.581 20.033 53.5953 20.143L54.0053 23.1072L56.8314 24.1355C56.9389 24.1828 57.0175 24.2431 57.0672 24.3165C57.1168 24.3899 57.147 24.4754 57.1577 24.573C57.1684 24.6706 57.1499 24.7633 57.1022 24.851C57.0547 24.9387 56.9804 25.0072 56.8794 25.0564L54.1779 26.367L54.0816 29.3639C54.0811 29.4771 54.0487 29.5717 53.9845 29.6479C53.9202 29.7241 53.8431 29.7791 53.7533 29.813C53.6636 29.8468 53.5711 29.8555 53.4759 29.8393C53.3807 29.823 53.2941 29.7754 53.216 29.6965L51.1335 27.5332Z" fill="#FBE5B9"/>
<path d="M36.9466 27.5333L34.8641 29.6967C34.7861 29.7756 34.6994 29.8231 34.6042 29.8394C34.509 29.8557 34.4165 29.8469 34.3269 29.8131C34.237 29.7792 34.16 29.7242 34.0956 29.6481C34.0314 29.5719 33.9991 29.4772 33.9985 29.3641L33.9022 26.3672L31.2008 25.0566C31.0998 25.0073 31.0255 24.9388 30.9779 24.8511C30.9302 24.7634 30.9117 24.6707 30.9224 24.5731C30.9331 24.4756 30.9633 24.3901 31.013 24.3167C31.0626 24.2433 31.1412 24.1829 31.2488 24.1356L34.0749 23.1074L34.4848 20.1431C34.4991 20.0331 34.5415 19.9432 34.6119 19.8735C34.6823 19.8038 34.7637 19.7565 34.8562 19.7318C34.9486 19.707 35.0428 19.7072 35.1386 19.7324C35.2344 19.7576 35.3161 19.8142 35.3835 19.9023L37.2206 22.2645L40.1822 21.7419C40.299 21.7291 40.3972 21.7421 40.4769 21.7808C40.5567 21.8196 40.6255 21.8785 40.6836 21.9576C40.7416 22.0368 40.772 22.1263 40.7745 22.2261C40.7772 22.3259 40.7471 22.4223 40.6842 22.5155L39 25.0012L40.4151 27.6448C40.4712 27.743 40.4905 27.8412 40.473 27.9393C40.4553 28.0374 40.4161 28.1236 40.3552 28.1978C40.2945 28.2719 40.2188 28.3257 40.1282 28.3592C40.0376 28.3928 39.9388 28.3949 39.8317 28.3656L36.9466 27.5333Z" fill="#FBE5B9"/>
<ellipse cx="44" cy="97.1198" rx="13.803" ry="3.00065" fill="#607C7F" fill-opacity="0.2"/>
<defs>
<filter id="filter0_f_375_3083" x="27.5541" y="16.348" width="32.9741" height="16.865" filterUnits="userSpaceOnUse" color-interpolation-filters="sRGB">
<feFlood flood-opacity="0" result="BackgroundImageFix"/>
<feBlend mode="normal" in="SourceGraphic" in2="BackgroundImageFix" result="shape"/>
<feGaussianBlur stdDeviation="1.68269" result="effect1_foregroundBlur_375_3083"/>
</filter>
</defs>
</svg>
