<svg width="21" height="17" viewBox="0 0 21 17" fill="none" xmlns="http://www.w3.org/2000/svg">
<path d="M0.240601 4.6713C0.24062 2.29267 20.6942 2.29267 20.6942 4.6713C20.6942 12.9319 14.07 16.6033 10.4674 16.6033C6.8648 16.6033 0.240531 13.1613 0.240601 4.6713Z" fill="#819D92"/>
<path d="M0 0H20.9348L20.1302 4.03297C20.1302 4.03297 17.0848 9.38459 10.4674 9.38459C3.85009 9.38459 0.804608 4.03297 0.804608 4.03297L0 0Z" fill="#070D0D"/>
<path d="M0.361084 1.80505C3.27329 6.66579 17.0297 7.2433 20.574 1.80505L20.0446 4.45199C20.0446 4.45199 17.1597 9.75866 10.5424 9.75866C3.92504 9.75866 0.879559 4.40704 0.879559 4.40704L0.361084 1.80505Z" fill="#152828"/>
<path d="M0.770264 3.85083C6.42508 10.2275 14.4381 10.5885 20.1675 3.85083L20.0448 4.45241C20.0448 4.45241 17.1143 9.91487 10.4221 9.77041C3.73001 9.62596 0.878544 4.40428 0.878544 4.40428L0.770264 3.85083Z" fill="#2A5050"/>
</svg>
