<svg width="66" height="47" viewBox="0 0 66 47" fill="none" xmlns="http://www.w3.org/2000/svg">
<rect x="29.7003" y="10.9254" width="6.68301" height="13.6328" transform="rotate(-49.0059 29.7003 10.9254)" fill="#2A5050"/>
<path d="M34.0841 5.88073L44.3807 14.8068L40.8695 18.8557L40.1806 20.1354L38.5656 18.631L38.566 18.6304L29.7002 10.925L34.0841 5.88073Z" fill="#2A5050"/>
<path d="M36.3208 16.6794C37.1463 13.9815 41.3002 15.0211 42.498 13.1904L43.1112 13.6906L43.3528 17.1186L36.8106 17.1187L36.3208 16.6794Z" fill="#468586"/>
<path d="M59.0304 15.5108L56.6685 13.1909C52.0804 15.5949 50.8841 19.6896 54.3685 22.3137C57.279 24.0106 59.4323 23.3339 61.9031 22.2536C62.6823 19.368 62.0344 18.8078 60.5602 15.645L59.0304 15.5108Z" fill="#2A5050"/>
<path d="M54.263 22.4553L53.1793 16.198C53.4201 15.7167 53.6419 15.5326 54.0224 15.1152C53.8171 17.457 56.6614 20.8975 55.707 22.9366L54.263 22.4553Z" fill="#468586"/>
<path d="M62.4207 19.6729C64.0392 18.4419 65.3322 18.4574 65.6258 19.258C65.9193 20.0586 64.6364 21.5872 63.0681 22.1622C61.4999 22.7372 59.9199 22.4115 59.6264 21.6109C59.3328 20.8102 60.1138 19.2718 62.4207 19.6729Z" fill="#D2E3DD"/>
<path d="M60.0119 20.2696L64.8514 18.7247C65.092 18.6909 65.313 18.8593 65.313 18.8593C63.4635 21.1931 61.4442 21.3494 60.0119 20.2696Z" fill="#AECAC0"/>
<path d="M62.2492 17.7553C63.8677 16.5243 65.1607 16.5398 65.4542 17.3404C65.7478 18.141 64.4648 19.6696 62.8966 20.2446C61.3284 20.8196 59.7484 20.4939 59.4549 19.6933C59.1613 18.8926 59.9423 17.3542 62.2492 17.7553Z" fill="#D2E3DD"/>
<path d="M59.5805 18.619L64.732 16.7998C65.0929 16.7998 65.2939 17.0721 65.2939 17.0721C63.2525 19.4762 61.0863 19.6719 59.5805 18.619Z" fill="#AECAC0"/>
<path d="M61.8768 15.6305C63.7066 14.2388 65.1684 14.2562 65.5003 15.1613C65.8322 16.0665 64.3817 17.7947 62.6088 18.4447C60.8358 19.0947 59.0496 18.7265 58.7177 17.8214C58.3858 16.9162 59.2688 15.1769 61.8768 15.6305Z" fill="#D2E3DD"/>
<ellipse cx="1.74558" cy="3.41918" rx="1.74558" ry="3.41918" transform="matrix(-0.422458 -0.906382 -0.906382 0.422458 61.9667 14.4614)" fill="#D2E3DD"/>
<path d="M36.7333 17.073C37.5069 14.1211 41.8653 15.7653 42.7947 13.431C48.4137 12.7157 53.3956 15.8375 53.3956 15.8375C53.14 18.7532 57.7546 22.5396 53.7168 24.5078C47.6106 26.9952 35.6004 21.3957 36.7333 17.073Z" fill="#BAD3CA"/>
<path d="M29.6998 10.925L33.0982 13.8782C35.3647 14.9348 37.4591 15.2683 38.484 14.4124C39.3206 13.7136 39.5052 12.172 39.1988 10.3137L34.0836 5.8811L29.6998 10.925Z" fill="#152828"/>
<path d="M26.4708 1.32843C32.6549 -4.58385 41.2068 10.9934 38.3354 13.7386C35.464 16.4838 20.2867 7.24071 26.4708 1.32843Z" fill="#BAD3CA"/>
</svg>
