<svg width="41" height="48" viewBox="0 0 41 48" fill="none" xmlns="http://www.w3.org/2000/svg">
<path d="M24.7655 9.17468L31.4303 8.68148L32.4364 22.2771L25.7716 22.7704L24.7655 9.17468Z" fill="#2A5050"/>
<path d="M24.7655 9.17468L31.4303 8.68148L31.7108 12.4335C30.4088 14.9915 27.1718 17.8093 25.3939 17.6665L24.7655 9.17468Z" fill="#152828"/>
<path d="M25.7182 23.0954L25.6314 20.89C27.3561 20.4908 29.9978 21.1371 31.5188 19.0317C31.7037 18.7758 31.9256 18.68 32.1716 18.7195L32.336 21.0809L25.7182 23.0954Z" fill="#468586"/>
<path d="M24.6032 22.4875C25.7236 20.3233 29.8249 22.5022 31.88 19.6575C33.9351 16.8128 40.5559 33.756 34.1442 36.2496C27.7325 38.7432 23.4828 24.6518 24.6032 22.4875Z" fill="#BAD3CA"/>
<path d="M30.5836 36.5567C29.8883 34.977 30.3701 33.1157 31.7137 32.0323C34.0939 30.113 37.4259 32.7488 36.106 35.507L35.969 35.7932L36.7276 38.551L33.0803 40.6567C31.8477 39.1813 31.2051 37.9687 30.5836 36.5567Z" fill="#2A5050"/>
<path d="M30.3568 35.8416C30.0677 34.619 30.3703 33.1163 31.7139 32.0329C32.9454 31.0399 34.5003 31.2262 35.3967 32.0981C32.9299 31.4382 30.5683 33.0795 30.3568 35.8416Z" fill="#152828"/>
<ellipse cx="37.2628" cy="34.7958" rx="1.74558" ry="3.41918" transform="rotate(-45 37.2628 34.7958)" fill="#D2E3DD"/>
<path d="M36.3594 40.5428C38.3416 40.996 39.1586 41.9984 38.7322 42.7369C38.3058 43.4754 36.3102 43.4705 34.8637 42.6353C33.4172 41.8002 32.6544 40.3787 33.0808 39.6402C33.5071 38.9017 35.1886 38.515 36.3594 40.5428Z" fill="#D2E3DD"/>
<path d="M33.8154 39.1088L38.7104 42.0746C38.8303 42.2185 38.7406 42.5464 38.7406 42.5464C35.5516 42.5001 33.9859 40.9473 33.8154 39.1088Z" fill="#AECAC0"/>
<path d="M37.5679 39.0503C39.809 39.5627 40.7326 40.696 40.2505 41.5309C39.7685 42.3658 37.5124 42.3602 35.877 41.416C34.2416 40.4718 33.3793 38.8647 33.8613 38.0298C34.3433 37.1949 36.2443 36.7578 37.5679 39.0503Z" fill="#D2E3DD"/>
<path d="M30.7611 0.323077C38.8056 3.23564 28.6513 17.8191 24.9161 16.4668C21.1809 15.1144 22.7165 -2.58949 30.7611 0.323077Z" fill="#BAD3CA"/>
</svg>
