<svg width="31" height="34" viewBox="0 0 31 34" fill="none" xmlns="http://www.w3.org/2000/svg">
<path d="M1.2768 5.53469L6.35835 3.89217C6.93191 3.70677 7.44991 3.38069 7.86507 2.94368L8.37539 2.40649H15.474H22.4618L23.1166 3.0348C23.5108 3.41309 23.9857 3.69696 24.5056 3.865L29.6712 5.53469C29.6712 5.53469 37.251 33.6884 15.474 33.6884C-6.30303 33.6884 1.2768 5.53469 1.2768 5.53469Z" fill="#D2E3DD"/>
<path d="M9.14358 0H21.6564L22.8595 3.60946C22.8595 3.60946 22.8595 7.21891 15.4 7.21891C7.94043 7.21891 7.94043 3.60946 7.94043 3.60946L9.14358 0Z" fill="#2A5050"/>
<path d="M8.06074 3.24878C8.06074 3.24878 9.14358 6.37698 15.4 6.37698C21.7767 6.25667 22.7392 3.24878 22.7392 3.24878L22.8595 3.60972C22.8595 3.60972 22.8595 7.21918 15.4 7.21918C7.94043 7.21918 7.94043 3.60972 7.94043 3.60972L8.06074 3.24878Z" fill="#468586"/>
<path d="M9.14352 0H21.6563L22.4576 2.4063C19.3703 3.60946 11.7904 3.48914 8.34222 2.4063L9.14352 0Z" fill="#152828"/>
</svg>
